<?xml version="1.0" encoding="UTF-8"?>
<svg version="1.1" xmlns="http://www.w3.org/2000/svg" width="423" height="481">
<path d="M0 0 C1.49851443 0.8822173 2.99582577 1.76648008 4.4921875 2.65234375 C6.30122219 3.694205 8.11117416 4.73447463 9.921875 5.7734375 C13.98699358 8.11895932 18.03685464 10.48863615 22.078125 12.875 C28.5234855 16.67967638 35.00434738 20.42069636 41.4921875 24.15234375 C49.84050273 28.96028373 58.17462323 33.79140285 66.4921875 38.65234375 C78.03941236 45.39947489 89.62120869 52.08573745 101.20996094 58.76123047 C107.71664998 62.51017522 114.22076911 66.26358028 120.72412109 70.01831055 C126.23652819 73.2002725 131.7520679 76.37658056 137.2734375 79.54296875 C142.70551531 82.65968324 148.12788094 85.79261098 153.54199219 88.94042969 C155.44087259 90.04229574 157.34237055 91.13966952 159.24707031 92.23144531 C180.75793901 104.58462188 180.75793901 104.58462188 184.84811413 117.17245781 C185.85877227 121.06381093 185.90994504 124.78985346 185.87986755 128.79161072 C185.88794586 130.10338227 185.88794586 130.10338227 185.89618737 131.44165426 C185.91040062 134.34788683 185.9033797 137.25365963 185.89624023 140.15991211 C185.90194725 142.25336572 185.90891279 144.34681622 185.91703796 146.44026184 C185.93494728 152.10968606 185.93380519 157.77895532 185.92809558 163.44839931 C185.92500067 168.18744057 185.93109952 172.92645221 185.93713433 177.66548926 C185.9511705 188.84790018 185.94962565 200.03023469 185.93823242 211.21264648 C185.92675055 222.73649441 185.94083025 234.26010963 185.9676289 245.7839269 C185.98980195 255.69078105 185.99641968 265.59756223 185.99055248 275.50443941 C185.98718576 281.41575067 185.98957929 287.32691274 186.00680351 293.23820305 C186.02229615 298.79758742 186.0182911 304.35662757 185.99949837 309.91599846 C185.99581902 311.95169002 185.99890179 313.98740721 186.00938416 316.0230751 C186.07111136 329.00541394 185.99085853 339.85249561 176.57666016 349.81591797 C172.66124428 353.26540944 168.23370513 355.7070067 163.6796875 358.21484375 C162.63361328 358.8078125 161.58753906 359.40078125 160.50976562 360.01171875 C158.29664274 361.26621621 156.08025828 362.51497516 153.86083984 363.75830078 C148.37692443 366.84166183 142.93742837 370.00136546 137.4921875 373.15234375 C135.30217887 374.41422832 133.11207491 375.67594746 130.921875 376.9375 C124.80678906 380.4652929 118.71049563 384.02461027 112.6171875 387.58984375 C103.34724713 393.01165238 94.03386895 398.35439349 84.70373535 403.67156982 C75.5793591 408.87279504 66.49085976 414.13262253 57.42529297 419.43579102 C49.09551923 424.30689484 40.7438497 429.13921898 32.38061523 433.95263672 C27.30471245 436.87416767 22.23167007 439.80009076 17.1729126 442.75120544 C15.40174233 443.78420653 13.6294979 444.81534041 11.85693359 445.84594727 C9.63768444 447.13705767 7.42042597 448.43159841 5.20556641 449.73022461 C-11.16122797 459.23466151 -11.16122797 459.23466151 -19.5703125 459.08984375 C-20.69566406 459.08855469 -21.82101563 459.08726562 -22.98046875 459.0859375 C-31.45060999 458.04475735 -38.1891661 453.70607763 -45.3828125 449.40234375 C-47.52824536 448.13473862 -49.67409296 446.86783523 -51.8203125 445.6015625 C-52.92375 444.94849121 -54.0271875 444.29541992 -55.1640625 443.62255859 C-60.54899285 440.44963308 -65.96560634 437.33223842 -71.3828125 434.21484375 C-73.56512186 432.95706195 -75.74741343 431.69924928 -77.9296875 430.44140625 C-80.122353 429.17831106 -82.31506139 427.91529031 -84.5078125 426.65234375 C-97.15084249 419.37040867 -109.78913582 412.08188333 -122.3828125 404.71484375 C-131.06043491 399.63959252 -139.77386818 394.62975608 -148.5078125 389.65234375 C-158.21387025 384.12093093 -167.8896824 378.54100758 -177.52856445 372.89306641 C-182.87256985 369.76397231 -188.22933522 366.65937801 -193.60546875 363.5859375 C-194.7999881 362.90181014 -195.99448695 362.217647 -197.18896484 361.53344727 C-199.47191739 360.22596961 -201.75772131 358.9239804 -204.04541016 357.62475586 C-205.59494385 356.73735718 -205.59494385 356.73735718 -207.17578125 355.83203125 C-208.08610107 355.31366699 -208.9964209 354.79530273 -209.93432617 354.26123047 C-214.68785262 351.2894309 -217.96270382 348.46657284 -220.7578125 343.58984375 C-221.25796875 342.73261719 -221.758125 341.87539063 -222.2734375 340.9921875 C-224.576964 336.62569265 -224.66193671 332.81559089 -224.67276001 327.998703 C-224.67840355 327.21128591 -224.6840471 326.42386882 -224.68986166 325.61259061 C-224.70760947 322.96463369 -224.71829074 320.31669523 -224.72900391 317.66870117 C-224.74021889 315.77294168 -224.7518511 313.87718462 -224.76387024 311.98143005 C-224.79525675 306.81915595 -224.82035893 301.65686869 -224.8440671 296.49455428 C-224.86449853 292.17447985 -224.88804094 287.85442473 -224.91160429 283.53436643 C-224.96728965 273.3210259 -225.01797948 263.10766899 -225.06542969 252.89428711 C-225.11423898 242.40354241 -225.1705658 231.91285822 -225.23085082 221.42217368 C-225.28251653 212.39171457 -225.32977589 203.36123971 -225.37353837 194.33073884 C-225.39963847 188.94884619 -225.42723097 183.56697305 -225.4589119 178.18511009 C-225.48860012 173.10359372 -225.51269371 168.02207849 -225.53281212 162.94051552 C-225.54098713 161.09369091 -225.55097529 159.24687309 -225.56310081 157.40007019 C-225.60120703 151.48303263 -225.58807683 145.56899295 -225.5078125 139.65234375 C-225.49592754 138.7036574 -225.48404258 137.75497105 -225.47179747 136.77753663 C-225.42315246 133.8296751 -225.34388025 130.88412457 -225.25546265 127.93721008 C-225.24151888 127.04217748 -225.2275751 126.14714487 -225.21320879 125.22499007 C-224.92306627 117.47565537 -222.60670289 109.98238624 -217.2421875 104.14453125 C-212.80078407 100.32332379 -207.56480513 97.56737539 -202.5078125 94.65234375 C-200.60155116 93.54559245 -198.69530217 92.43881988 -196.7890625 91.33203125 C-191.77090339 88.42539514 -186.74525774 85.53199274 -181.71614075 82.6443634 C-175.64142811 79.15614598 -169.57449882 75.65449512 -163.5078125 72.15234375 C-156.98555368 68.38857659 -150.46267477 64.62589747 -143.9375 60.8671875 C-133.44549156 54.82179216 -122.96299574 48.76124156 -112.5078125 42.65234375 C-104.22999141 37.81566495 -95.93840342 33.00368652 -87.6328125 28.21484375 C-86.5605542 27.59657715 -85.4882959 26.97831055 -84.38354492 26.34130859 C-78.79518672 23.12036009 -73.20485096 19.90286968 -67.61328125 16.6875 C-65.34886631 15.38427446 -63.08454193 14.08089157 -60.8203125 12.77734375 C-59.73411621 12.15263184 -58.64791992 11.52791992 -57.52880859 10.88427734 C-50.4364254 6.79516212 -43.41246224 2.61317445 -36.4609375 -1.7109375 C-24.19749849 -8.50773769 -11.68280137 -6.62442654 0 0 Z " fill="#2D083E" transform="translate(230.5078125,15.34765625)"/>
<path d="M0 0 C11.73739481 -0.85190769 20.79025382 1.14695651 29.9375 8.8125 C37.55989565 16.15872189 40.98900961 23.67908744 41.375 34.3125 C41.29524102 40.59170734 39.81173053 45.4329994 37 51 C36.505 51.99 36.505 51.99 36 53 C35.34 53 34.68 53 34 53 C33.773125 53.556875 33.54625 54.11375 33.3125 54.6875 C29.23904592 61.86453815 22.39663923 64.89183777 15 68 C4.88892735 70.55067845 -4.1715679 68.89500583 -13.19140625 63.75 C-20.40535192 58.7807067 -26.86042612 51.60024793 -29 43 C-30.00012097 31.23113463 -29.46417087 21.31271412 -21.875 11.75 C-16.17081926 5.71531951 -9.40245258 1.36532403 -1 1 C-3.32657339 2.55104893 -5.51231096 3.82336701 -8 5.0625 C-8.680625 5.40410156 -9.36125 5.74570313 -10.0625 6.09765625 C-12 7 -12 7 -15 8 C-14.67 10.31 -14.34 12.62 -14 15 C-12.948125 15.2475 -11.89625 15.495 -10.8125 15.75 C-4.10431966 17.70318504 -0.27171425 22.77412277 4 28 C7.99016054 27.46977596 9.59811842 25.60170799 12.25 22.6875 C16.23621695 18.53601701 19.71368681 16.21064006 25 14 C24.01 13.34 23.02 12.68 22 12 C22.33 11.01 22.66 10.02 23 9 C22.33541946 5.92901097 22.33541946 5.92901097 20.13671875 4.8671875 C13.42414859 2.14790071 7.22079314 1.24813722 0 1 C0 0.67 0 0.34 0 0 Z " fill="#2D093E" transform="translate(206,163)"/>
<path d="M0 0 C-0.67546875 0.26554688 -1.3509375 0.53109375 -2.046875 0.8046875 C-2.93890625 1.15789062 -3.8309375 1.51109375 -4.75 1.875 C-5.63171875 2.22304687 -6.5134375 2.57109375 -7.421875 2.9296875 C-9.6740248 3.8646709 -11.83649459 4.87780794 -14 6 C-13.67 8.31 -13.34 10.62 -13 13 C-11.948125 13.2475 -10.89625 13.495 -9.8125 13.75 C-3.10431966 15.70318504 0.72828575 20.77412277 5 26 C9.04675616 25.47576113 10.77650056 23.47720402 13.5 20.5625 C18.43997683 15.29262746 18.43997683 15.29262746 22 14 C23.32 14 24.64 14 26 14 C26 14.66 26 15.32 26 16 C24.68 16.33 23.36 16.66 22 17 C22.66 18.32 23.32 19.64 24 21 C20.37 24.63 16.74 28.26 13 32 C14.84897091 35.69794182 15.71344699 36.84677187 18.75 39.3125 C21.50225369 41.65719876 24.11841859 44.02018867 26.5625 46.6875 C27.05878906 47.22761719 27.55507812 47.76773438 28.06640625 48.32421875 C29 50 29 50 28.65234375 52.20703125 C28.43707031 52.79871094 28.22179687 53.39039063 28 54 C25.05753815 54.26648711 23.5096363 54.36087241 21.05541992 52.62304688 C20.45318604 51.99462891 19.85095215 51.36621094 19.23046875 50.71875 C18.56982422 50.04199219 17.90917969 49.36523438 17.22851562 48.66796875 C16.55498047 47.95253906 15.88144531 47.23710937 15.1875 46.5 C14.49462891 45.78457031 13.80175781 45.06914062 13.08789062 44.33203125 C11.38014301 42.56539579 9.68513312 40.78817513 8 39 C4.22823129 40.75290693 1.8497716 42.94616221 -1.0625 45.9375 C-2.34833984 47.25041016 -2.34833984 47.25041016 -3.66015625 48.58984375 C-5.0101093 49.980363 -6.34754922 51.38378658 -7.6484375 52.8203125 C-9 54 -9 54 -11.5625 53.9375 C-14 53 -14 53 -15.3125 50.9375 C-15.6528125 49.9784375 -15.6528125 49.9784375 -16 49 C-16.99 49 -17.98 49 -19 49 C-17.18309464 55.05635119 -14.66947309 57.4031655 -9.3515625 60.73828125 C-3.84781479 63.69128874 0.27953122 64.28915196 6.4375 64.1875 C7.17548828 64.18685547 7.91347656 64.18621094 8.67382812 64.18554688 C12.88394895 64.15186591 16.85453367 63.82120965 21 63 C17.19630505 66.80369495 11.38096125 67.1430751 6.1875 67.375 C-2.99955181 67.14920456 -11.40227334 63.31554284 -18 57 C-26.43965964 47.79582412 -28.60698194 40.51521262 -28.30859375 28.20703125 C-27.86878051 19.99657581 -24.65214541 13.78059023 -19.0703125 7.82421875 C-13.96140291 3.32259464 -6.97614505 -2.16501053 0 0 Z " fill="#2D0A3E" transform="translate(205,165)"/>
<path d="M0 0 C1.98 0 3.96 0 6 0 C7.32 6.27 8.64 12.54 10 19 C11.65 19.33 13.3 19.66 15 20 C15 21.32 15 22.64 15 24 C15.99 24 16.98 24 18 24 C18 16.08 18 8.16 18 0 C20.97 0 23.94 0 27 0 C27 3.3 27 6.6 27 10 C27.99 10 28.98 10 30 10 C30 6.7 30 3.4 30 0 C31.32 0 32.64 0 34 0 C34.33 6.6 34.66 13.2 35 20 C36.485 10.1 36.485 10.1 38 0 C39.98 0 41.96 0 44 0 C45.32 7.92 46.64 15.84 48 24 C48.33 16.08 48.66 8.16 49 0 C56 0 56 0 58.41796875 1.0078125 C60.83879368 4.05625871 60.46296574 7.16351176 60.3125 10.875 C60.29799805 11.93654297 60.29799805 11.93654297 60.28320312 13.01953125 C60.20230458 16.79714138 59.7708392 20.31193314 59 24 C59.37722015 26.72502965 59.37722015 26.72502965 60 29 C58.35 29 56.7 29 55 29 C54.505 27.02 54.505 27.02 54 25 C53.67 26.32 53.34 27.64 53 29 C46.84765625 29.09765625 46.84765625 29.09765625 45 29 C44 28 44 28 43.90234375 25.93359375 C43.91394531 25.10988281 43.92554688 24.28617187 43.9375 23.4375 C43.94652344 22.61121094 43.95554687 21.78492188 43.96484375 20.93359375 C43.97644531 20.29550781 43.98804688 19.65742188 44 19 C42.35 19 40.7 19 39 19 C39 22.3 39 25.6 39 29 C36.03 29 33.06 29 30 29 C30 24.05 30 19.1 30 14 C29.01 14 28.02 14 27 14 C27 18.95 27 23.9 27 29 C25.35 29 23.7 29 22 29 C22 28.34 22 27.68 22 27 C21.06027344 27.12568359 21.06027344 27.12568359 20.1015625 27.25390625 C19.28429687 27.35574219 18.46703125 27.45757812 17.625 27.5625 C16.81289063 27.66691406 16.00078125 27.77132813 15.1640625 27.87890625 C13 28 13 28 11 27 C11 27.66 11 28.32 11 29 C9.35 29 7.7 29 6 29 C6 25.7 6 22.4 6 19 C4.35 19 2.7 19 1 19 C1 21.97 1 24.94 1 28 C-0.32 28 -1.64 28 -3 28 C-2.23167719 18.63859312 -1.1258211 9.32354753 0 0 Z " fill="#D6CBDA" transform="translate(281,258)"/>
<path d="M0 0 C0.6852475 0.00141495 1.370495 0.0028299 2.07650757 0.00428772 C4.26719511 0.0098895 6.4577808 0.02244219 8.6484375 0.03515625 C10.13281102 0.04017103 11.61718615 0.04473397 13.1015625 0.04882812 C16.74222065 0.05985948 20.38281914 0.07712526 24.0234375 0.09765625 C25.0134375 2.73765625 26.0034375 5.37765625 27.0234375 8.09765625 C28.0134375 5.45765625 29.0034375 2.81765625 30.0234375 0.09765625 C31.3434375 0.09765625 32.6634375 0.09765625 34.0234375 0.09765625 C33.54067114 3.87932606 32.94005431 7.52198691 32.0234375 11.22265625 C30.65708184 17.10614295 30.3766947 23.08298755 30.0234375 29.09765625 C28.3734375 29.09765625 26.7234375 29.09765625 25.0234375 29.09765625 C24.97445312 28.38222656 24.92546875 27.66679687 24.875 26.9296875 C24.29848976 19.24619759 23.28593082 11.69713061 22.0234375 4.09765625 C19.7134375 4.09765625 17.4034375 4.09765625 15.0234375 4.09765625 C15.0234375 12.01765625 15.0234375 19.93765625 15.0234375 28.09765625 C14.0334375 28.09765625 13.0434375 28.09765625 12.0234375 28.09765625 C12.0234375 20.17765625 12.0234375 12.25765625 12.0234375 4.09765625 C10.0434375 4.09765625 8.0634375 4.09765625 6.0234375 4.09765625 C6.0234375 12.34765625 6.0234375 20.59765625 6.0234375 29.09765625 C-4.1765625 29.09765625 -4.1765625 29.09765625 -7.9765625 28.09765625 C-9.9765625 26.09765625 -9.9765625 26.09765625 -10.1015625 22.47265625 C-10.0603125 21.35890625 -10.0190625 20.24515625 -9.9765625 19.09765625 C-8.6565625 19.09765625 -7.3365625 19.09765625 -5.9765625 19.09765625 C-5.9765625 21.07765625 -5.9765625 23.05765625 -5.9765625 25.09765625 C-4.9865625 25.09765625 -3.9965625 25.09765625 -2.9765625 25.09765625 C-4.07725723 19.68590717 -5.02701208 16.17063012 -8.9765625 12.09765625 C-9.6365625 11.76765625 -10.2965625 11.43765625 -10.9765625 11.09765625 C-10.96496094 11.7009375 -10.95335937 12.30421875 -10.94140625 12.92578125 C-10.92787109 14.12460937 -10.92787109 14.12460937 -10.9140625 15.34765625 C-10.90246094 16.1365625 -10.89085937 16.92546875 -10.87890625 17.73828125 C-10.97292574 20.00979201 -11.42804951 21.9036043 -11.9765625 24.09765625 C-11.59089119 26.77915618 -11.59089119 26.77915618 -10.9765625 29.09765625 C-12.2965625 29.09765625 -13.6165625 29.09765625 -14.9765625 29.09765625 C-15.3065625 27.11765625 -15.6365625 25.13765625 -15.9765625 23.09765625 C-16.9665625 23.09765625 -17.9565625 23.09765625 -18.9765625 23.09765625 C-18.9765625 24.74765625 -18.9765625 26.39765625 -18.9765625 28.09765625 C-19.6365625 28.09765625 -20.2965625 28.09765625 -20.9765625 28.09765625 C-20.9765625 19.18765625 -20.9765625 10.27765625 -20.9765625 1.09765625 C-16.9765625 1.09765625 -12.9765625 1.09765625 -8.9765625 1.09765625 C-6.00296801 -0.389141 -3.31357071 -0.0134698 0 0 Z " fill="#D9CEDD" transform="translate(156.9765625,257.90234375)"/>
<path d="M0 0 C0.99 0 1.98 0 3 0 C3.33 7.92 3.66 15.84 4 24 C4.99 24.33 5.98 24.66 7 25 C7 16.75 7 8.5 7 0 C10.96 0 14.92 0 19 0 C19.33 2.97 19.66 5.94 20 9 C20.33 6.03 20.66 3.06 21 0 C23.97 0 26.94 0 30 0 C30 9.57 30 19.14 30 29 C26.37 29 22.74 29 19 29 C18.34 26.03 17.68 23.06 17 20 C16.67 22.97 16.34 25.94 16 29 C14.33388095 29.042721 12.66617115 29.04063832 11 29 C10.67 28.67 10.34 28.34 10 28 C8.001431 28.09670495 6.00245232 28.19722242 4.0078125 28.35546875 C2 28 2 28 0.39501953 26.31445312 C-1.29202724 23.51550258 -1.36055677 21.86232926 -1.328125 18.61328125 C-1.32296875 17.59298828 -1.3178125 16.57269531 -1.3125 15.52148438 C-1.291875 14.46251953 -1.27125 13.40355469 -1.25 12.3125 C-1.24484375 11.24193359 -1.2396875 10.17136719 -1.234375 9.06835938 C-1.15407791 1.15407791 -1.15407791 1.15407791 0 0 Z " fill="#E7DFE9" transform="translate(82,258)"/>
<path d="M0 0 C3.20991748 1.41539317 5.37654845 3.11962032 7.85546875 5.58984375 C8.55994141 6.29173828 9.26441406 6.99363281 9.99023438 7.71679688 C11.07788086 8.81604492 11.07788086 8.81604492 12.1875 9.9375 C12.92419922 10.66646484 13.66089844 11.39542969 14.41992188 12.14648438 C15.47083008 13.20125977 15.47083008 13.20125977 16.54296875 14.27734375 C17.5023938 15.24015259 17.5023938 15.24015259 18.48120117 16.22241211 C20 18 20 18 21 21 C19.56429734 21.81567174 18.12636566 22.62742093 16.6875 23.4375 C15.48673828 24.11619141 15.48673828 24.11619141 14.26171875 24.80859375 C7.69039245 28.27017324 -0.74428468 27.9449076 -8 27 C-14.26463489 24.94085341 -19.66042927 22.03823177 -24 17 C-24.75 13.75 -24.75 13.75 -25 11 C-23.68 10.67 -22.36 10.34 -21 10 C-20.938125 10.61875 -20.87625 11.2375 -20.8125 11.875 C-20.171081 14.27761141 -20.171081 14.27761141 -17.4375 15.25 C-16.633125 15.4975 -15.82875 15.745 -15 16 C-14.67 15.01 -14.34 14.02 -14 13 C-12.36328125 11.38671875 -12.36328125 11.38671875 -10.3125 9.6875 C-6.68248665 6.61343464 -3.32096428 3.40398838 0 0 Z " fill="#2C093D" transform="translate(211,203)"/>
<path d="M0 0 C8.40548347 1.97776082 12.64353904 6.44707869 18 13 C22.04675616 12.47576113 23.77650056 10.47720402 26.5 7.5625 C31.43997683 2.29262746 31.43997683 2.29262746 35 1 C36.32 1 37.64 1 39 1 C39 1.66 39 2.32 39 3 C37.68 3.33 36.36 3.66 35 4 C35.66 5.32 36.32 6.64 37 8 C33.37 11.63 29.74 15.26 26 19 C27.84897091 22.69794182 28.71344699 23.84677187 31.75 26.3125 C34.50225369 28.65719876 37.11841859 31.02018867 39.5625 33.6875 C40.05878906 34.22761719 40.55507812 34.76773438 41.06640625 35.32421875 C42 37 42 37 41.65234375 39.20703125 C41.43707031 39.79871094 41.22179687 40.39039063 41 41 C38.05753815 41.26648711 36.5096363 41.36087241 34.05541992 39.62304688 C33.45318604 38.99462891 32.85095215 38.36621094 32.23046875 37.71875 C31.56982422 37.04199219 30.90917969 36.36523438 30.22851562 35.66796875 C29.55498047 34.95253906 28.88144531 34.23710937 28.1875 33.5 C27.49462891 32.78457031 26.80175781 32.06914062 26.08789062 31.33203125 C24.38014301 29.56539579 22.68513312 27.78817513 21 26 C17.18163531 27.76546959 14.85092224 30.00846009 11.9375 33.0625 C7.33239832 37.88920056 7.33239832 37.88920056 4 39 C3.67 38.34 3.34 37.68 3 37 C2.01 36.34 1.02 35.68 0 35 C3.49800736 28.79898696 8.64324969 24.60026267 14 20 C10.49102731 15.81576108 6.91939465 11.80411834 3 8 C3.66 6.68 4.32 5.36 5 4 C2.525 3.01 2.525 3.01 0 2 C0 1.34 0 0.68 0 0 Z " fill="#755981" transform="translate(192,178)"/>
<path d="M0 0 C2.375 0.8125 2.375 0.8125 4.375 2.8125 C4.705 1.8225 5.035 0.8325 5.375 -0.1875 C8.675 -0.1875 11.975 -0.1875 15.375 -0.1875 C15.230625 0.493125 15.08625 1.17375 14.9375 1.875 C14.751875 2.844375 14.56625 3.81375 14.375 4.8125 C14.1275 5.905625 13.88 6.99875 13.625 8.125 C13.35028584 12.17703387 14.1118231 14.12251865 15.671875 17.74609375 C16.82878351 21.14611932 16.56577333 24.25139789 16.375 27.8125 C15.385 27.8125 14.395 27.8125 13.375 27.8125 C11.89 22.8625 11.89 22.8625 10.375 17.8125 C10.045 21.4425 9.715 25.0725 9.375 28.8125 C7.725 28.8125 6.075 28.8125 4.375 28.8125 C4.375 28.1525 4.375 27.4925 4.375 26.8125 C3.715 27.1425 3.055 27.4725 2.375 27.8125 C-0.5625 28.125 -0.5625 28.125 -3.625 27.8125 C-7.79594105 23.51551907 -7.1044651 18.90002859 -7.0625 13.25 C-7.0924707 11.81237305 -7.0924707 11.81237305 -7.12304688 10.34570312 C-7.12240234 9.42595703 -7.12175781 8.50621094 -7.12109375 7.55859375 C-7.12294678 6.71997803 -7.1247998 5.8813623 -7.12670898 5.01733398 C-6.625 2.8125 -6.625 2.8125 -4.75805664 1.00415039 C-2.625 -0.1875 -2.625 -0.1875 0 0 Z " fill="#CEC2D2" transform="translate(247.625,258.1875)"/>
<path d="M0 0 C2.4375 0.8125 2.4375 0.8125 5.4375 2.8125 C5.4375 1.8225 5.4375 0.8325 5.4375 -0.1875 C8.4075 -0.1875 11.3775 -0.1875 14.4375 -0.1875 C14.4375 1.1325 14.4375 2.4525 14.4375 3.8125 C12.7875 3.8125 11.1375 3.8125 9.4375 3.8125 C9.4375 5.7925 9.4375 7.7725 9.4375 9.8125 C11.0875 9.8125 12.7375 9.8125 14.4375 9.8125 C14.4375 11.1325 14.4375 12.4525 14.4375 13.8125 C12.7875 13.8125 11.1375 13.8125 9.4375 13.8125 C9.4375 18.7625 9.4375 23.7125 9.4375 28.8125 C8.1175 28.8125 6.7975 28.8125 5.4375 28.8125 C5.1075 27.8225 4.7775 26.8325 4.4375 25.8125 C3.7775 26.4725 3.1175 27.1325 2.4375 27.8125 C-0.27704956 28.14002234 -2.81480759 27.9433425 -5.5625 27.8125 C-8.11083854 25.26416146 -6.84552413 18.36063119 -6.875 14.9375 C-6.90400391 13.82246094 -6.93300781 12.70742188 -6.96289062 11.55859375 C-6.97126953 10.48996094 -6.97964844 9.42132813 -6.98828125 8.3203125 C-7.00286377 7.33691895 -7.01744629 6.35352539 -7.0324707 5.34033203 C-6.5625 2.8125 -6.5625 2.8125 -4.69604492 0.95654297 C-2.5625 -0.1875 -2.5625 -0.1875 0 0 Z " fill="#C2B8C8" transform="translate(205.5625,258.1875)"/>
<path d="M0 0 C7 0 7 0 9.41796875 1.0078125 C11.83879368 4.05625871 11.46296574 7.16351176 11.3125 10.875 C11.30283203 11.58269531 11.29316406 12.29039062 11.28320312 13.01953125 C11.20230458 16.79714138 10.7708392 20.31193314 10 24 C10.37722015 26.72502965 10.37722015 26.72502965 11 29 C9.35 29 7.7 29 6 29 C5.67 27.68 5.34 26.36 5 25 C4.67 26.32 4.34 27.64 4 29 C-2.15234375 29.09765625 -2.15234375 29.09765625 -4 29 C-5 28 -5 28 -5.09765625 25.93359375 C-5.08025391 24.69802734 -5.08025391 24.69802734 -5.0625 23.4375 C-5.05347656 22.61121094 -5.04445313 21.78492188 -5.03515625 20.93359375 C-5.02355469 20.29550781 -5.01195312 19.65742188 -5 19 C-6.65 19 -8.3 19 -10 19 C-10 18.67 -10 18.34 -10 18 C-8.02 18 -6.04 18 -4 18 C-4.33 17.34 -4.66 16.68 -5 16 C-7.02463255 15.34786708 -7.02463255 15.34786708 -9 15 C-9.125 8.25 -9.125 8.25 -8 6 C-6.68 5.67 -5.36 5.34 -4 5 C-3.01 11.27 -2.02 17.54 -1 24 C-0.67 16.08 -0.34 8.16 0 0 Z " fill="#D6CADA" transform="translate(330,258)"/>
<path d="M0 0 C0.99 0 1.98 0 3 0 C3 1.98 3 3.96 3 6 C3.99 6 4.98 6 6 6 C6 4.02 6 2.04 6 0 C10.62 0 15.24 0 20 0 C20 1.32 20 2.64 20 4 C18.35 4 16.7 4 15 4 C15 5.98 15 7.96 15 10 C16.65 10 18.3 10 20 10 C20 10.99 20 11.98 20 13 C18.35 13 16.7 13 15 13 C15 16.96 15 20.92 15 25 C16.65 25 18.3 25 20 25 C20 25.99 20 26.98 20 28 C17.03 28 14.06 28 11 28 C10.67 21.73 10.34 15.46 10 9 C9.01 15.27 8.02 21.54 7 28 C5.35 28.33 3.7 28.66 2 29 C1.86722656 27.73285156 1.73445313 26.46570313 1.59765625 25.16015625 C1.41928506 23.46093601 1.24089884 21.76171734 1.0625 20.0625 C0.97548828 19.23169922 0.88847656 18.40089844 0.79882812 17.54492188 C0.66831055 16.30258789 0.66831055 16.30258789 0.53515625 15.03515625 C0.4489502 14.20516113 0.36274414 13.37516602 0.27392578 12.52001953 C0.08816732 10.81110793 -0.11184863 9.10369725 -0.32470703 7.39794922 C-0.5874289 5.26960689 -0.79858335 3.13501644 -1 1 C-0.67 0.67 -0.34 0.34 0 0 Z " fill="#EAE4EE" transform="translate(114,258)"/>
<path d="M0 0 C1.32 0 2.64 0 4 0 C4.33 6.6 4.66 13.2 5 20 C5.99 13.4 6.98 6.8 8 0 C9.98 0 11.96 0 14 0 C14 3.63 14 7.26 14 11 C13.67 11 13.34 11 13 11 C13 9.35 13 7.7 13 6 C12.34 6 11.68 6 11 6 C10.67 8.97 10.34 11.94 10 15 C12.475 15.495 12.475 15.495 15 16 C15 16.66 15 17.32 15 18 C13.02 18 11.04 18 9 18 C9 21.63 9 25.26 9 29 C6.03 29 3.06 29 0 29 C0 24.05 0 19.1 0 14 C-1.32 14 -2.64 14 -4 14 C-4 18.62 -4 23.24 -4 28 C-4.66 28 -5.32 28 -6 28 C-6 19.09 -6 10.18 -6 1 C-5.34 1 -4.68 1 -4 1 C-4 3.97 -4 6.94 -4 10 C-2.68 10 -1.36 10 0 10 C0 6.7 0 3.4 0 0 Z " fill="#E2D7E5" transform="translate(311,258)"/>
<path d="M0 0 C5.61 0 11.22 0 17 0 C17.99 2.64 18.98 5.28 20 8 C20.99 5.36 21.98 2.72 23 0 C24.32 0 25.64 0 27 0 C26.51723364 3.78166981 25.91661681 7.42433066 25 11.125 C23.63364434 17.0084867 23.3532572 22.9853313 23 29 C21.35 29 19.7 29 18 29 C17.95101562 28.28457031 17.90203125 27.56914062 17.8515625 26.83203125 C17.27505226 19.14854134 16.26249332 11.59947436 15 4 C12.69 4 10.38 4 8 4 C8 11.92 8 19.84 8 28 C7.01 28 6.02 28 5 28 C5 20.08 5 12.16 5 4 C3.35 4 1.7 4 0 4 C0 2.68 0 1.36 0 0 Z " fill="#B3A4BA" transform="translate(164,258)"/>
<path d="M0 0 C7 0 7 0 10 1 C11.55608229 4.11216459 11.14322832 7.4007658 11.125 10.8125 C11.12886719 11.52470703 11.13273437 12.23691406 11.13671875 12.97070312 C11.12965316 16.78965413 10.81837348 20.27834918 10 24 C10 25.32 10 26.64 10 28 C8.68 27.67 7.36 27.34 6 27 C6 25.68 6 24.36 6 23 C5.34 23 4.68 23 4 23 C4 24.98 4 26.96 4 29 C2.68 28.67 1.36 28.34 0 28 C0 18.76 0 9.52 0 0 Z " fill="#CFC5D5" transform="translate(266,258)"/>
<path d="M0 0 C2.31 0.66 4.62 1.32 7 2 C7 6 7 6 6 9 C6.66 9 7.32 9 8 9 C8 9.66 8 10.32 8 11 C8.556875 11.226875 9.11375 11.45375 9.6875 11.6875 C13.4879961 13.84453833 16.1786655 16.92376859 18.8125 20.375 C21.32503708 23.3900445 24.11078219 25.81759257 27.09765625 28.3515625 C28.82258661 29.84626602 30.48534931 31.29188926 32 33 C32 33.66 32 34.32 32 35 C32.5775 35.2475 33.155 35.495 33.75 35.75 C36.3002997 37.16683317 38.01785701 38.87627537 40 41 C34.27003831 40.83566075 31.37524908 36.82273925 27.6875 32.9375 C27.04232422 32.27427734 26.39714844 31.61105469 25.73242188 30.92773438 C24.14552982 29.29382329 22.56873672 27.65131853 21 26 C17.18163531 27.76546959 14.85092224 30.00846009 11.9375 33.0625 C7.33239832 37.88920056 7.33239832 37.88920056 4 39 C3.67 38.34 3.34 37.68 3 37 C2.01 36.34 1.02 35.68 0 35 C3.49800736 28.79898696 8.64324969 24.60026267 14 20 C10.49102731 15.81576108 6.91939465 11.80411834 3 8 C3.66 6.68 4.32 5.36 5 4 C2.525 3.01 2.525 3.01 0 2 C0 1.34 0 0.68 0 0 Z " fill="#82678F" transform="translate(192,178)"/>
<path d="M0 0 C3.3 0 6.6 0 10 0 C9.855625 0.680625 9.71125 1.36125 9.5625 2.0625 C9.376875 3.031875 9.19125 4.00125 9 5 C8.7525 6.093125 8.505 7.18625 8.25 8.3125 C7.97528584 12.36453387 8.7368231 14.31001865 10.296875 17.93359375 C11.45378351 21.33361932 11.19077333 24.43889789 11 28 C10.01 28 9.02 28 8 28 C7.01 24.7 6.02 21.4 5 18 C4.67 21.63 4.34 25.26 4 29 C2.35 29 0.7 29 -1 29 C-1.91259206 25.93510145 -2.06998769 23.34378006 -1.9140625 20.15625 C-1.87023437 19.23972656 -1.82640625 18.32320313 -1.78125 17.37890625 C-1.7296875 16.42886719 -1.678125 15.47882813 -1.625 14.5 C-1.58117187 13.54996094 -1.53734375 12.59992188 -1.4921875 11.62109375 C-1.2856769 7.54250931 -0.99637482 3.98549929 0 0 Z " fill="#A190A7" transform="translate(253,258)"/>
<path d="M0 0 C3.3 0 6.6 0 10 0 C9 5 9 5 8.37890625 7.3046875 C7.92077994 10.56352411 8.48857555 12.77808808 9.375 15.9375 C10.48284265 19.94954699 11.37417588 23.883059 12 28 C10.68 28 9.36 28 8 28 C7.34 24.37 6.68 20.74 6 17 C5.34 17 4.68 17 4 17 C4 20.96 4 24.92 4 29 C2.68 29 1.36 29 0 29 C0 19.43 0 9.86 0 0 Z " fill="#F1EBF4" transform="translate(228,258)"/>
<path d="M0 0 C2.97 0 5.94 0 9 0 C8.67 9.57 8.34 19.14 8 29 C3 29 3 29 1 28 C1.05800781 27.20335937 1.11601562 26.40671875 1.17578125 25.5859375 C1.64633656 19.61279444 1.64633656 19.61279444 -0.11328125 14.078125 C-0.57089844 13.59859375 -1.02851563 13.1190625 -1.5 12.625 C-4 10 -4 10 -4.3125 6.625 C-4.209375 5.75875 -4.10625 4.8925 -4 4 C-3.01 4 -2.02 4 -1 4 C-1 5.65 -1 7.3 -1 9 C0.32 9 1.64 9 3 9 C1.78955868 4.39257135 1.78955868 4.39257135 0 0 Z " fill="#8C7A92" transform="translate(155,258)"/>
<path d="M0 0 C1.98 0 3.96 0 6 0 C6.6754914 3.54004203 7.33880798 7.08226169 8 10.625 C8.19078125 11.62402344 8.3815625 12.62304688 8.578125 13.65234375 C9.47527136 18.49052593 10.27009288 23.05392418 10 28 C9.01 28 8.02 28 7 28 C6.67 25.03 6.34 22.06 6 19 C4.35 19 2.7 19 1 19 C1 21.97 1 24.94 1 28 C-0.32 28 -1.64 28 -3 28 C-2.23167719 18.63859312 -1.1258211 9.32354753 0 0 Z " fill="#DFD7E4" transform="translate(281,258)"/>
<path d="M0 0 C-0.94359375 0.31130859 -0.94359375 0.31130859 -1.90625 0.62890625 C-8.52352291 3.01072587 -15.69543124 6.39086248 -19 13 C-19.66 13 -20.32 13 -21 13 C-23.61743676 20.34999723 -23.61743676 20.34999723 -25 28 C-25.09925781 28.83917969 -25.19851562 29.67835938 -25.30078125 30.54296875 C-25.95695193 40.28260018 -22.42886553 48.60833761 -16.29296875 56.078125 C-14.61123621 57.63776455 -12.96314058 58.81878829 -11 60 C-10.3915625 60.40734375 -9.783125 60.8146875 -9.15625 61.234375 C-0.49601184 66.09743181 11.60647257 64.81953366 21 63 C17.19630505 66.80369495 11.38096125 67.1430751 6.1875 67.375 C-2.99955181 67.14920456 -11.40227334 63.31554284 -18 57 C-26.43965964 47.79582412 -28.60698194 40.51521262 -28.30859375 28.20703125 C-27.86878051 19.99657581 -24.65214541 13.78059023 -19.0703125 7.82421875 C-13.96140291 3.32259464 -6.97614505 -2.16501053 0 0 Z " fill="#785A86" transform="translate(205,165)"/>
<path d="M0 0 C11.73739481 -0.85190769 20.79025382 1.14695651 29.9375 8.8125 C37.55989565 16.15872189 40.98900961 23.67908744 41.375 34.3125 C41.29524102 40.59170734 39.81173053 45.4329994 37 51 C36.505 51.99 36.505 51.99 36 53 C35.34 53 34.68 53 34 53 C33.773125 53.556875 33.54625 54.11375 33.3125 54.6875 C30.67848264 59.32838773 26.77691474 62.67609553 22 65 C21.34 64.67 20.68 64.34 20 64 C20.51949219 63.63648438 21.03898437 63.27296875 21.57421875 62.8984375 C30.49263434 56.46926545 35.17286098 49.94666475 37 39 C37.65653671 30.69104358 37.21044357 24.25378173 33 17 C32.484375 15.96875 31.96875 14.9375 31.4375 13.875 C25.77842559 7.20019428 17.46048952 2.70415072 8.7890625 1.5859375 C7.74492187 1.51632813 6.70078125 1.44671875 5.625 1.375 C4.56539062 1.30023438 3.50578125 1.22546875 2.4140625 1.1484375 C1.61742187 1.09945312 0.82078125 1.05046875 0 1 C0 0.67 0 0.34 0 0 Z " fill="#715280" transform="translate(206,163)"/>
<path d="M0 0 C2.83181098 -0.43566323 4.36063578 -0.39684676 6.8125 1.125 C8.49106106 3.77535957 8.20450238 5.93246424 8 9 C6.68 9 5.36 9 4 9 C4 7.35 4 5.7 4 4 C3.01 4 2.02 4 1 4 C2.14499613 9.12036899 2.14499613 9.12036899 5.125 13.3125 C7.59858924 16.85797791 7.44001944 19.46720946 7.43359375 23.6953125 C6.91926125 26.42915192 6.2359513 27.37920277 4 29 C0.65807308 28.75546876 -0.60543557 28.39456443 -3 26 C-3.125 22.375 -3.125 22.375 -3 19 C-1.68 19 -0.36 19 1 19 C1 20.98 1 22.96 1 25 C1.99 25 2.98 25 4 25 C2.94961165 19.29877974 2.94961165 19.29877974 -0.125 14.5625 C-2.53629776 11.26705973 -2.40386786 9.06665684 -2.3359375 5.0859375 C-2 3 -2 3 0 0 Z " fill="#E0D5E3" transform="translate(150,258)"/>
<path d="M0 0 C1.98 0 3.96 0 6 0 C6 9.57 6 19.14 6 29 C2.37 29 -1.26 29 -5 29 C-5 28.67 -5 28.34 -5 28 C-3.35 28 -1.7 28 0 28 C0 18.76 0 9.52 0 0 Z " fill="#A496AB" transform="translate(106,258)"/>
<path d="M0 0 C0.33 0 0.66 0 1 0 C1 7.92 1 15.84 1 24 C1.99 24 2.98 24 4 24 C4 16.08 4 8.16 4 0 C6.31 0 8.62 0 11 0 C11.36504603 1.58086048 11.71660506 3.16483907 12.0625 4.75 C12.25972656 5.63171875 12.45695313 6.5134375 12.66015625 7.421875 C13.00363159 10.02755 12.92876191 11.56066557 12 14 C11.360625 14.598125 10.72125 15.19625 10.0625 15.8125 C7.40373796 18.63239913 6.86011008 21.27285632 6 25 C4.02 25 2.04 25 0 25 C0 16.75 0 8.5 0 0 Z " fill="#4D325B" transform="translate(168,262)"/>
<path d="M0 0 C2.64 0 5.28 0 8 0 C8 0.33 8 0.66 8 1 C6.02 1 4.04 1 2 1 C2 9.91 2 18.82 2 28 C2.66 28 3.32 28 4 28 C4 26.35 4 24.7 4 23 C4.99 23 5.98 23 7 23 C7 23.99 7 24.98 7 26 C6.34 26 5.68 26 5 26 C5 26.99 5 27.98 5 29 C0.38 29 -4.24 29 -9 29 C-9 28.67 -9 28.34 -9 28 C-6.03 28 -3.06 28 0 28 C0 27.01 0 26.02 0 25 C-1.65 25 -3.3 25 -5 25 C-5 21.04 -5 17.08 -5 13 C-3.35 13 -1.7 13 0 13 C0 12.01 0 11.02 0 10 C-1.65 10 -3.3 10 -5 10 C-5 8.02 -5 6.04 -5 4 C-3.35 4 -1.7 4 0 4 C0 2.68 0 1.36 0 0 Z " fill="#AA9CB1" transform="translate(134,258)"/>
<path d="M0 0 C0.99 0 1.98 0 3 0 C3.33 7.92 3.66 15.84 4 24 C4.99 24 5.98 24 7 24 C7.33 16.41 7.66 8.82 8 1 C8.66 1 9.32 1 10 1 C10.05784708 5.12494151 10.09354407 9.24977944 10.125 13.375 C10.15013672 15.1384375 10.15013672 15.1384375 10.17578125 16.9375 C10.18222656 18.05898438 10.18867187 19.18046875 10.1953125 20.3359375 C10.20578613 21.37282715 10.21625977 22.4097168 10.22705078 23.47802734 C10 26 10 26 8 28 C5.0625 28.375 5.0625 28.375 2 28 C-0.13943533 25.84024566 -0.93340826 24.47631342 -1.35644531 21.45043945 C-1.34709961 20.51417725 -1.33775391 19.57791504 -1.328125 18.61328125 C-1.32296875 17.59298828 -1.3178125 16.57269531 -1.3125 15.52148438 C-1.291875 14.46251953 -1.27125 13.40355469 -1.25 12.3125 C-1.24484375 11.24193359 -1.2396875 10.17136719 -1.234375 9.06835938 C-1.15407791 1.15407791 -1.15407791 1.15407791 0 0 Z " fill="#E1D8E7" transform="translate(82,258)"/>
<path d="M0 0 C1.32 0 2.64 0 4 0 C4 0.66 4 1.32 4 2 C4.99 2 5.98 2 7 2 C7 1.34 7 0.68 7 0 C10.3 0 13.6 0 17 0 C17.66666667 3.33333333 18.33333333 6.66666667 19 10 C14.71 10 10.42 10 6 10 C5.67 9.34 5.34 8.68 5 8 C4.67 8.66 4.34 9.32 4 10 C2.68 10 1.36 10 0 10 C0 6.7 0 3.4 0 0 Z " fill="#51385C" transform="translate(244,312)"/>
<path d="M0 0 C0.33 0 0.66 0 1 0 C1.33 6.27 1.66 12.54 2 19 C2.33 13.39 2.66 7.78 3 2 C4.32 1.67 5.64 1.34 7 1 C8 2 8 2 8.11352539 4.22485352 C8.10828857 5.18319092 8.10305176 6.14152832 8.09765625 7.12890625 C8.09443359 8.16337891 8.09121094 9.19785156 8.08789062 10.26367188 C8.07951172 11.35228516 8.07113281 12.44089844 8.0625 13.5625 C8.05798828 14.65498047 8.05347656 15.74746094 8.04882812 16.87304688 C8.03699826 19.58208495 8.02051543 22.29101599 8 25 C5.66705225 25.04241723 3.33297433 25.04092937 1 25 C0 24 0 24 -0.11352539 21.68334961 C-0.10828857 20.68311768 -0.10305176 19.68288574 -0.09765625 18.65234375 C-0.09443359 17.57275391 -0.09121094 16.49316406 -0.08789062 15.38085938 C-0.07951172 14.24455078 -0.07113281 13.10824219 -0.0625 11.9375 C-0.05798828 10.79732422 -0.05347656 9.65714844 -0.04882812 8.48242188 C-0.03699747 5.65489649 -0.0205141 2.8274736 0 0 Z " fill="#BFB2C6" transform="translate(199,261)"/>
<path d="M0 0 C2.97 0 5.94 0 9 0 C10.55608229 3.11216459 10.14322832 6.4007658 10.125 9.8125 C10.12886719 10.52470703 10.13273437 11.23691406 10.13671875 11.97070312 C10.12965316 15.78965413 9.81837348 19.27834918 9 23 C9 24.32 9 25.64 9 27 C7.68 26.67 6.36 26.34 5 26 C5 24.35 5 22.7 5 21 C4.34 21 3.68 21 3 21 C3 20.01 3 19.02 3 18 C3.99 18 4.98 18 6 18 C6 13.05 6 8.1 6 3 C5.01 3 4.02 3 3 3 C3 2.34 3 1.68 3 1 C2.34 1 1.68 1 1 1 C1 6.61 1 12.22 1 18 C0.67 18 0.34 18 0 18 C0 12.06 0 6.12 0 0 Z " fill="#D1C6D7" transform="translate(267,259)"/>
<path d="M0 0 C0.66 0 1.32 0 2 0 C2 2.97 2 5.94 2 9 C3.65 9 5.3 9 7 9 C7 6.03 7 3.06 7 0 C7.66 0 8.32 0 9 0 C9 8.91 9 17.82 9 27 C8.34 27 7.68 27 7 27 C7 22.38 7 17.76 7 13 C5.35 13 3.7 13 2 13 C2 17.62 2 22.24 2 27 C1.34 27 0.68 27 0 27 C0 18.09 0 9.18 0 0 Z " fill="#EEE8F1" transform="translate(305,259)"/>
<path d="M0 0 C1.875 0.6875 1.875 0.6875 2.875 1.6875 C3.205 1.0275 3.535 0.3675 3.875 -0.3125 C5.525 0.0175 7.175 0.3475 8.875 0.6875 C9.91949911 3.82099732 9.80923645 4.67718256 8.875 7.6875 C9.535 7.6875 10.195 7.6875 10.875 7.6875 C10.875 8.3475 10.875 9.0075 10.875 9.6875 C5.70292848 9.6875 0.96238375 9.66167987 -4.125 8.6875 C-5.125 7.6875 -5.125 7.6875 -5.375 4.75 C-5.2925 3.739375 -5.21 2.72875 -5.125 1.6875 C-2.125 -0.3125 -2.125 -0.3125 0 0 Z " fill="#AA91B4" transform="translate(302.125,312.3125)"/>
<path d="M0 0 C2.31 0 4.62 0 7 0 C7.33 0.66 7.66 1.32 8 2 C8.99 1.34 9.98 0.68 11 0 C13.1875 0.375 13.1875 0.375 15 1 C15 3.31 15 5.62 15 8 C12.66836622 8.67258667 10.3347961 9.33847444 8 10 C6.88625 10.3403125 6.88625 10.3403125 5.75 10.6875 C4 11 4 11 1 10 C0.67 6.7 0.34 3.4 0 0 Z " fill="#3F214F" transform="translate(140,312)"/>
<path d="M0 0 C2.64 0 5.28 0 8 0 C9.60725635 3.21451269 9.05748185 6.43612536 9 10 C8.34 10 7.68 10 7 10 C7 7.69 7 5.38 7 3 C5.68 3 4.36 3 3 3 C3 7.95 3 12.9 3 18 C4.32 18 5.64 18 7 18 C7 19.65 7 21.3 7 23 C5.35 22.67 3.7 22.34 2 22 C2 23.65 2 25.3 2 27 C1.34 27 0.68 27 0 27 C0 18.09 0 9.18 0 0 Z " fill="#E7E0EB" transform="translate(136,259)"/>
<path d="M0 0 C1.65 0 3.3 0 5 0 C5 9.24 5 18.48 5 28 C5.99 28 6.98 28 8 28 C8 22.39 8 16.78 8 11 C8.66 11 9.32 11 10 11 C10.33 13.97 10.66 16.94 11 20 C10.67 20 10.34 20 10 20 C9.67 22.97 9.34 25.94 9 29 C5.28400809 29.20086443 4.22791555 29.1519437 1 27 C1.33 26.67 1.66 26.34 2 26 C2.15786308 24.14825294 2.25107356 22.2909089 2.31640625 20.43359375 C2.37924805 18.7465332 2.37924805 18.7465332 2.44335938 17.02539062 C2.48267578 15.84138672 2.52199219 14.65738281 2.5625 13.4375 C2.60568359 12.24962891 2.64886719 11.06175781 2.69335938 9.83789062 C2.79983546 6.89205216 2.90184841 3.9461257 3 1 C2.34 1 1.68 1 1 1 C1 8.59 1 16.18 1 24 C0.67 24 0.34 24 0 24 C0 16.08 0 8.16 0 0 Z " fill="#A79BAD" transform="translate(89,258)"/>
<path d="M0 0 C0.66 0 1.32 0 2 0 C2 9.24 2 18.48 2 28 C0.35 28 -1.3 28 -3 28 C-3.33848652 26.10507994 -3.67056911 24.20901534 -4 22.3125 C-4.185625 21.25675781 -4.37125 20.20101563 -4.5625 19.11328125 C-4.95068074 16.35095938 -5.08259976 13.78257957 -5 11 C-4.34 11 -3.68 11 -3 11 C-2.67 12.98 -2.34 14.96 -2 17 C-1.34 17 -0.68 17 0 17 C0 11.39 0 5.78 0 0 Z " fill="#F2EBF3" transform="translate(104,258)"/>
<path d="M0 0 C0.99 0 1.98 0 3 0 C3.33 9.57 3.66 19.14 4 29 C2.02 29 0.04 29 -2 29 C-1.01 28.67 -0.02 28.34 1 28 C-0.21105282 21.30538619 -0.21105282 21.30538619 -2.1875 14.8125 C-3.704997 9.55962576 -2.20650396 4.85430872 0 0 Z " fill="#533960" transform="translate(263,258)"/>
<path d="M0 0 C2.85779017 1.29719924 4.91008536 2.6636826 7.11621094 4.88916016 C7.69651062 5.4696109 8.2768103 6.05006165 8.87469482 6.64810181 C9.48838928 7.27211884 10.10208374 7.89613586 10.734375 8.5390625 C11.37240051 9.17991791 12.01042603 9.82077332 12.66778564 10.48104858 C14.69994069 12.52437821 16.72502218 14.57455982 18.75 16.625 C20.1284453 18.0134786 21.50734636 19.4015049 22.88671875 20.7890625 C26.26311894 24.18748697 29.63319288 27.59207254 33 31 C32.67 31.99 32.34 32.98 32 34 C29.95880212 32.38405168 27.95927063 30.7143618 26 29 C26 28.34 26 27.68 26 27 C25.01 26.67 24.02 26.34 23 26 C18.22727273 21.68181818 18.22727273 21.68181818 17 18 C15.67233982 17.32210571 14.33814643 16.65695232 13 16 C11.21875 14.16015625 11.21875 14.16015625 9.5 12.0625 C7.68003563 9.84958877 6.09682416 8.07108393 3.78125 6.37109375 C3.1934375 5.91863281 2.605625 5.46617187 2 5 C2 4.34 2 3.68 2 3 C1.34 3 0.68 3 0 3 C0 2.01 0 1.02 0 0 Z " fill="#543B60" transform="translate(198,184)"/>
<path d="M0 0 C3.96 0 7.92 0 12 0 C12 0.99 12 1.98 12 3 C10.35 3 8.7 3 7 3 C7 10.92 7 18.84 7 27 C6.01 27 5.02 27 4 27 C4 19.08 4 11.16 4 3 C2.68 3 1.36 3 0 3 C0 2.01 0 1.02 0 0 Z " fill="#EAE1EF" transform="translate(165,259)"/>
<path d="M0 0 C1.32 0 2.64 0 4 0 C4 0.66 4 1.32 4 2 C4.86625 1.7834375 4.86625 1.7834375 5.75 1.5625 C6.86375 1.2840625 6.86375 1.2840625 8 1 C8.70125 0.79375 9.4025 0.5875 10.125 0.375 C12 0 12 0 14 1 C14.125 4.375 14.125 4.375 14 8 C13.34 8.66 12.68 9.32 12 10 C9.5 9.8125 9.5 9.8125 7 9 C6.34 8.01 5.68 7.02 5 6 C4.34 6 3.68 6 3 6 C3 7.32 3 8.64 3 10 C2.01 10 1.02 10 0 10 C0 6.7 0 3.4 0 0 Z " fill="#9A81A5" transform="translate(193,312)"/>
<path d="M0 0 C3.63 0 7.26 0 11 0 C11 0.66 11 1.32 11 2 C10.34 2 9.68 2 9 2 C9 2.66 9 3.32 9 4 C9.66 4.33 10.32 4.66 11 5 C10.67 5.66 10.34 6.32 10 7 C10.66 7 11.32 7 12 7 C12 7.99 12 8.98 12 10 C8 10 4 10 0 10 C0 6.7 0 3.4 0 0 Z " fill="#563F63" transform="translate(222,312)"/>
<path d="M0 0 C2.31 0 4.62 0 7 0 C7 0.99 7 1.98 7 3 C5.68 3 4.36 3 3 3 C3 4.98 3 6.96 3 9 C4.65 9 6.3 9 8 9 C8 10.32 8 11.64 8 13 C6.02 13 4.04 13 2 13 C2 17.62 2 22.24 2 27 C1.34 27 0.68 27 0 27 C0 18.09 0 9.18 0 0 Z " fill="#EFE5F1" transform="translate(212,259)"/>
<path d="M0 0 C3.3 0 6.6 0 10 0 C10 3.3 10 6.6 10 10 C3.06640625 10.09765625 3.06640625 10.09765625 1 10 C0 9 0 9 -0.09765625 6.93359375 C-0.06510417 4.62239583 -0.03255208 2.31119792 0 0 Z " fill="#755D80" transform="translate(87,312)"/>
<path d="M0 0 C0.66 0 1.32 0 2 0 C2 1.65 2 3.3 2 5 C2.99 5 3.98 5 5 5 C5.33 4.01 5.66 3.02 6 2 C6.33 7.61 6.66 13.22 7 19 C5 16 5 16 5 12 C4.01 12 3.02 12 2 12 C2 16.95 2 21.9 2 27 C1.34 27 0.68 27 0 27 C0 18.09 0 9.18 0 0 Z " fill="#F1ECF2" transform="translate(254,259)"/>
<path d="M0 0 C1.65 0 3.3 0 5 0 C5 3.3 5 6.6 5 10 C4.67 10 4.34 10 4 10 C4 7.03 4 4.06 4 1 C3.34 1 2.68 1 2 1 C2 9.91 2 18.82 2 28 C2.66 28 3.32 28 4 28 C4 23.38 4 18.76 4 14 C4.33 14 4.66 14 5 14 C5 18.95 5 23.9 5 29 C3.35 29 1.7 29 0 29 C-1.05127928 25.61608422 -1.04087598 22.66796575 -0.87890625 19.140625 C-0.83056641 18.02558594 -0.78222656 16.91054688 -0.73242188 15.76171875 C-0.64831055 14.02341797 -0.64831055 14.02341797 -0.5625 12.25 C-0.51029297 11.07566406 -0.45808594 9.90132813 -0.40429688 8.69140625 C-0.27473776 5.79399336 -0.13977553 2.89693507 0 0 Z " fill="#A294A8" transform="translate(303,258)"/>
<path d="M0 0 C0.99 0 1.98 0 3 0 C3 9.24 3 18.48 3 28 C2.01 28 1.02 28 0 28 C0 18.76 0 9.52 0 0 Z " fill="#E2D8E5" transform="translate(159,258)"/>
<path d="M0 0 C0.99 0 1.98 0 3 0 C3 8.91 3 17.82 3 27 C2.01 27 1.02 27 0 27 C0 18.09 0 9.18 0 0 Z " fill="#E2DBE3" transform="translate(108,259)"/>
<path d="M0 0 C0.33 0.66 0.66 1.32 1 2 C1.66 2 2.32 2 3 2 C3 1.34 3 0.68 3 0 C3.66 0 4.32 0 5 0 C5 8.91 5 17.82 5 27 C3.09283441 24.13925162 2.64862535 22.97603463 2.1484375 19.7265625 C2.01953125 18.9015625 1.890625 18.0765625 1.7578125 17.2265625 C1.63148438 16.36804688 1.50515625 15.50953125 1.375 14.625 C1.17390625 13.34882813 1.17390625 13.34882813 0.96875 12.046875 C0.35127204 8.00176427 -0.18583911 4.10535497 0 0 Z " fill="#594366" transform="translate(325,258)"/>
<path d="M0 0 C1.32 0 2.64 0 4 0 C4.33 6.6 4.66 13.2 5 20 C5.33 20 5.66 20 6 20 C6 22.31 6 24.62 6 27 C6.66 27.33 7.32 27.66 8 28 C8 26.02 8 24.04 8 22 C8.33 22 8.66 22 9 22 C9 24.31 9 26.62 9 29 C6.03 29 3.06 29 0 29 C0 24.05 0 19.1 0 14 C0.33 14 0.66 14 1 14 C1 18.62 1 23.24 1 28 C1.66 28 2.32 28 3 28 C3 19.09 3 10.18 3 1 C2.34 1 1.68 1 1 1 C1 3.97 1 6.94 1 10 C0.67 10 0.34 10 0 10 C0 6.7 0 3.4 0 0 Z " fill="#B1A1B8" transform="translate(311,258)"/>
<path d="M0 0 C0 7.26 0 14.52 0 22 C-0.66 22 -1.32 22 -2 22 C-2 15.4 -2 8.8 -2 2 C-3.32 2.33 -4.64 2.66 -6 3 C-6.33 9.6 -6.66 16.2 -7 23 C-7.33 23 -7.66 23 -8 23 C-8.08703823 19.56265937 -8.14040272 16.12560163 -8.1875 12.6875 C-8.21263672 11.71103516 -8.23777344 10.73457031 -8.26367188 9.72851562 C-8.27333984 8.79072266 -8.28300781 7.85292969 -8.29296875 6.88671875 C-8.3086792 6.02264404 -8.32438965 5.15856934 -8.34057617 4.26831055 C-8 2 -8 2 -6.79418945 0.13208008 C-5 -1 -5 -1 0 0 Z " fill="#EFE9F3" transform="translate(251,260)"/>
<path d="M0 0 C1.13674891 3.41024674 0.69586793 5.52066036 0 9 C-0.21698487 11.43505237 -0.40290745 13.87301384 -0.5625 16.3125 C-0.64628906 17.56675781 -0.73007813 18.82101562 -0.81640625 20.11328125 C-0.87699219 21.06589844 -0.93757812 22.01851563 -1 23 C-1.99 23 -2.98 23 -4 23 C-4.09087891 21.62714844 -4.09087891 21.62714844 -4.18359375 20.2265625 C-4.26738281 19.03804688 -4.35117188 17.84953125 -4.4375 16.625 C-4.51871094 15.44164062 -4.59992188 14.25828125 -4.68359375 13.0390625 C-4.81084936 10.08481099 -4.81084936 10.08481099 -6 8 C-6.04022391 5.6670134 -6.04320247 3.33293334 -6 1 C-5.01 2.485 -5.01 2.485 -4 4 C-3.01 4.33 -2.02 4.66 -1 5 C-0.67 3.35 -0.34 1.7 0 0 Z " fill="#EDE5F1" transform="translate(187,263)"/>
<path d="M0 0 C4.16165179 1.85350878 5.81895694 3.94949146 8 8 C8.25 11.375 8.25 11.375 8 14 C7.01 14 6.02 14 5 14 C5 12.02 5 10.04 5 8 C3.68 8 2.36 8 1 8 C1.309375 9.918125 1.309375 9.918125 1.625 11.875 C1.9765625 14.0546875 1.9765625 14.0546875 2 16 C1.34 16.66 0.68 17.32 0 18 C-2.18529142 13.70226021 -1.97797551 10.87886533 -1.125 6.1875 C-0.92132813 5.02605469 -0.71765625 3.86460937 -0.5078125 2.66796875 C-0.34023437 1.78753906 -0.17265625 0.90710938 0 0 Z " fill="#442D50" transform="translate(146,269)"/>
<path d="M0 0 C0.99 0 1.98 0 3 0 C3 1.98 3 3.96 3 6 C3.99 6 4.98 6 6 6 C5.67 8.31 5.34 10.62 5 13 C4.34 13 3.68 13 3 13 C3 17.95 3 22.9 3 28 C3.99 28.33 4.98 28.66 6 29 C4.68 29 3.36 29 2 29 C1.86722656 27.73285156 1.73445313 26.46570313 1.59765625 25.16015625 C1.41928506 23.46093601 1.24089884 21.76171734 1.0625 20.0625 C0.97548828 19.23169922 0.88847656 18.40089844 0.79882812 17.54492188 C0.66831055 16.30258789 0.66831055 16.30258789 0.53515625 15.03515625 C0.4489502 14.20516113 0.36274414 13.37516602 0.27392578 12.52001953 C0.08816732 10.81110793 -0.11184863 9.10369725 -0.32470703 7.39794922 C-0.5874289 5.26960689 -0.79858335 3.13501644 -1 1 C-0.67 0.67 -0.34 0.34 0 0 Z " fill="#B0A2B5" transform="translate(114,258)"/>
<path d="M0 0 C2.83181098 -0.43566323 4.36063578 -0.39684676 6.8125 1.125 C8.49106106 3.77535957 8.20450238 5.93246424 8 9 C6.68 9 5.36 9 4 9 C4 7.35 4 5.7 4 4 C2.68 4 1.36 4 0 4 C0.48484276 8.64586892 0.48484276 8.64586892 2 13 C0.68 12.67 -0.64 12.34 -2 12 C-2.05422947 10.5629191 -2.09289723 9.12524538 -2.125 7.6875 C-2.14820313 6.88699219 -2.17140625 6.08648437 -2.1953125 5.26171875 C-2 3 -2 3 0 0 Z " fill="#F1E7EF" transform="translate(150,258)"/>
<path d="M0 0 C1.4540625 0.0309375 1.4540625 0.0309375 2.9375 0.0625 C2.9375 3.3625 2.9375 6.6625 2.9375 10.0625 C0.6275 10.0625 -1.6825 10.0625 -4.0625 10.0625 C-4.08939216 8.58343108 -4.10884621 7.10422517 -4.125 5.625 C-4.13660156 4.80128906 -4.14820312 3.97757812 -4.16015625 3.12890625 C-4.00103255 -0.23815127 -3.43619093 0.07012635 0 0 Z " fill="#7C6485" transform="translate(122.0625,311.9375)"/>
<path d="M0 0 C11.87258619 -0.86171997 20.92725218 1.1669304 30.0625 9.0625 C32.66407208 11.50904358 35.16854869 13.91955895 37 17 C36.6875 19.25 36.6875 19.25 36 21 C35.62230469 20.35933594 35.24460938 19.71867187 34.85546875 19.05859375 C29.26131176 10.26777562 22.10015985 4.81204961 12 2 C9.88234672 1.72692062 7.75545889 1.51703059 5.625 1.375 C4.56539062 1.30023438 3.50578125 1.22546875 2.4140625 1.1484375 C1.61742187 1.09945312 0.82078125 1.05046875 0 1 C0 0.67 0 0.34 0 0 Z " fill="#8B6B99" transform="translate(206,163)"/>
<path d="M0 0 C0.33 0 0.66 0 1 0 C1.33 1.98 1.66 3.96 2 6 C2.66 5.01 3.32 4.02 4 3 C3.69003741 5.72947644 3.37712025 8.45855985 3.0625 11.1875 C2.97548828 11.95642578 2.88847656 12.72535156 2.79882812 13.51757812 C2.35035579 17.38772828 1.8470999 21.19186624 1 25 C1.99 25.33 2.98 25.66 4 26 C1.03 26 -1.94 26 -5 26 C-4.67 25.34 -4.34 24.68 -4 24 C-3.01 24.33 -2.02 24.66 -1 25 C-1.185625 23.88625 -1.37125 22.7725 -1.5625 21.625 C-2 18 -2 18 -1 16 C-0.7677354 13.28737884 -0.58063765 10.59226874 -0.4375 7.875 C-0.37272461 6.74384766 -0.37272461 6.74384766 -0.30664062 5.58984375 C-0.2005168 3.72678112 -0.09974999 1.86341476 0 0 Z " fill="#6A5476" transform="translate(277,261)"/>
<path d="M0 0 C0.99 0.495 0.99 0.495 2 1 C2.94829765 7.32407771 3.26041943 13.6791908 3.5625 20.0625 C3.60568359 20.92810547 3.64886719 21.79371094 3.69335938 22.68554688 C3.79801286 24.79024468 3.89935911 26.89510651 4 29 C3.67 29 3.34 29 3 29 C2.67 27.35 2.34 25.7 2 24 C1.34 25.32 0.68 26.64 0 28 C0 18.76 0 9.52 0 0 Z " fill="#442A52" transform="translate(112,258)"/>
<path d="M0 0 C1.98 0 3.96 0 6 0 C6 3.63 6 7.26 6 11 C4.02 11 2.04 11 0 11 C0 7.37 0 3.74 0 0 Z " fill="#371A45" transform="translate(129,272)"/>
<path d="M0 0 C2.97 0.495 2.97 0.495 6 1 C6 2.32 6 3.64 6 5 C5.01 4.67 4.02 4.34 3 4 C3 3.01 3 2.02 3 1 C2.34 1 1.68 1 1 1 C1 9.91 1 18.82 1 28 C1.66 28 2.32 28 3 28 C3 23.38 3 18.76 3 14 C3.99 14.33 4.98 14.66 6 15 C6 15.66 6 16.32 6 17 C5.34 17 4.68 17 4 17 C4 20.96 4 24.92 4 29 C2.68 29 1.36 29 0 29 C0 19.43 0 9.86 0 0 Z " fill="#B0A1B6" transform="translate(228,258)"/>
<path d="M0 0 C1.98 0 3.96 0 6 0 C6 9.24 6 18.48 6 28 C5.67 28 5.34 28 5 28 C4.67 21.73 4.34 15.46 4 9 C3.34 13.29 2.68 17.58 2 22 C1.67 22 1.34 22 1 22 C1.14154136 19.43719792 1.28808562 16.87484515 1.4375 14.3125 C1.47681641 13.59126953 1.51613281 12.87003906 1.55664062 12.12695312 C1.78185678 8.33292718 2.12839305 4.71348508 3 1 C2.34 1 1.68 1 1 1 C0.67 1.99 0.34 2.98 0 4 C0 2.68 0 1.36 0 0 Z " fill="#B9AABF" transform="translate(120,258)"/>
<path d="M0 0 C0.99 0 1.98 0 3 0 C3 6.93 3 13.86 3 21 C2.01 21 1.02 21 0 21 C0 14.07 0 7.14 0 0 Z " fill="#594361" transform="translate(245,262)"/>
<path d="M0 0 C0.99 0 1.98 0 3 0 C3 6.93 3 13.86 3 21 C2.01 21 1.02 21 0 21 C0 14.07 0 7.14 0 0 Z " fill="#553C5F" transform="translate(203,262)"/>
<path d="M0 0 C0.99 0 1.98 0 3 0 C3.33 1.32 3.66 2.64 4 4 C4.66 3.34 5.32 2.68 6 2 C8.24828052 6.49656104 8.16682272 10.07872966 8 15 C7.01 15 6.02 15 5 15 C4.01 11.7 3.02 8.4 2 5 C1.67 8.3 1.34 11.6 1 15 C0.67 15 0.34 15 0 15 C0 10.05 0 5.1 0 0 Z " fill="#BBAEC1" transform="translate(256,271)"/>
<path d="M0 0 C0.99 0.33 1.98 0.66 3 1 C2.41604794 4.51149841 1.16720355 6.29031758 -1.3125 8.8125 C-1.90675781 9.43769531 -2.50101563 10.06289062 -3.11328125 10.70703125 C-5 12 -5 12 -7.23046875 11.69921875 C-7.81441406 11.46847656 -8.39835938 11.23773438 -9 11 C-7.58226538 7.45566346 -6.32387762 6.66193881 -3 5 C-1.79117904 2.99983534 -1.79117904 2.99983534 -1 1 C-0.67 0.67 -0.34 0.34 0 0 Z " fill="#371946" transform="translate(222,184)"/>
<path d="M0 0 C0.99 0.33 1.98 0.66 3 1 C1.60846256 5.42761914 -0.52071486 7.9556255 -4 11 C-4.66 11 -5.32 11 -6 11 C-6 11.66 -6 12.32 -6 13 C-6.99 13 -7.98 13 -9 13 C-8.91548357 10.12644151 -8.45477932 8.45701411 -6.41015625 6.40234375 C-5.1552403 5.3578636 -3.88324699 4.33350534 -2.59375 3.33203125 C-0.86886375 2.07063984 -0.86886375 2.07063984 0 0 Z " fill="#321440" transform="translate(207,199)"/>
<path d="M0 0 C0.66 0 1.32 0 2 0 C2 0.66 2 1.32 2 2 C2.66 2 3.32 2 4 2 C4 1.34 4 0.68 4 0 C4.66 0 5.32 0 6 0 C6.33 2.97 6.66 5.94 7 9 C4.36 9 1.72 9 -1 9 C-1.09765625 2.84765625 -1.09765625 2.84765625 -1 1 C-0.67 0.67 -0.34 0.34 0 0 Z " fill="#A795AF" transform="translate(288,312)"/>
<path d="M0 0 C0.66 0 1.32 0 2 0 C2 2.97 2 5.94 2 9 C3.65 9 5.3 9 7 9 C7.33 9.66 7.66 10.32 8 11 C6.02 11.33 4.04 11.66 2 12 C2 16.95 2 21.9 2 27 C1.34 27 0.68 27 0 27 C0 18.09 0 9.18 0 0 Z " fill="#F5EFF8" transform="translate(305,259)"/>
<path d="M0 0 C0 0.66 0 1.32 0 2 C-0.804375 2.474375 -1.60875 2.94875 -2.4375 3.4375 C-5.2918076 4.79983672 -5.2918076 4.79983672 -6 8 C-8 8.75 -8 8.75 -10 9 C-10.33 8.67 -10.66 8.34 -11 8 C-12.32 9.32 -13.64 10.64 -15 12 C-16.32 11.34 -17.64 10.68 -19 10 C-16.21251481 8.32626249 -13.41935573 6.66223733 -10.625 5 C-9.8309375 4.52304687 -9.036875 4.04609375 -8.21875 3.5546875 C-7.45820313 3.10351562 -6.69765625 2.65234375 -5.9140625 2.1875 C-4.8614624 1.55908203 -4.8614624 1.55908203 -3.78759766 0.91796875 C-2 0 -2 0 0 0 Z " fill="#593F65" transform="translate(196,14)"/>
<path d="M0 0 C1 1 1 1 1.125 4 C1 7 1 7 0 8 C-1.99958364 8.04080783 -4.00045254 8.04254356 -6 8 C-6 5.36 -6 2.72 -6 0 C-3.49749232 -1.25125384 -2.59701335 -0.83774624 0 0 Z " fill="#A88DB4" transform="translate(329,313)"/>
<path d="M0 0 C3.53571429 0.53571429 3.53571429 0.53571429 5 2 C5.04092937 4.33297433 5.04241723 6.66705225 5 9 C3.00045254 9.04254356 0.99958364 9.04080783 -1 9 C-2 8 -2 8 -2.1875 5.0625 C-2 2 -2 2 0 0 Z " fill="#AB90B7" transform="translate(279,312)"/>
<path d="M0 0 C0.598125 0.20625 1.19625 0.4125 1.8125 0.625 C1.85491723 2.95794775 1.85342937 5.29202567 1.8125 7.625 C0.8125 8.625 0.8125 8.625 -1.6875 8.75 C-4.1875 8.625 -4.1875 8.625 -5.1875 7.625 C-5.4375 4.6875 -5.4375 4.6875 -5.1875 1.625 C-2.1875 -0.375 -2.1875 -0.375 0 0 Z " fill="#AB92B4" transform="translate(153.1875,312.375)"/>
<path d="M0 0 C2.97 0.495 2.97 0.495 6 1 C6 3.97 6 6.94 6 10 C4.02 10 2.04 10 0 10 C0 6.7 0 3.4 0 0 Z " fill="#9F89A9" transform="translate(209,312)"/>
<path d="M0 0 C2.97 0.33 5.94 0.66 9 1 C8.67 3.64 8.34 6.28 8 9 C7.34 9 6.68 9 6 9 C6 8.34 6 7.68 6 7 C5.34 7 4.68 7 4 7 C4 7.66 4 8.32 4 9 C3.34 9 2.68 9 2 9 C1.34 6.03 0.68 3.06 0 0 Z " fill="#BDACC5" transform="translate(332,312)"/>
<path d="M0 0 C0.86625 0.3403125 0.86625 0.3403125 1.75 0.6875 C0.53763672 1.08388672 0.53763672 1.08388672 -0.69921875 1.48828125 C-3.42833296 3.39656764 -3.42833296 3.39656764 -3.75634766 5.99755859 C-3.96930863 8.96398585 -4.04565546 11.90100344 -4.0625 14.875 C-4.08763672 15.91076172 -4.11277344 16.94652344 -4.13867188 18.01367188 C-4.19761943 20.57199579 -4.23384257 23.12860605 -4.25 25.6875 C-7.61345663 22.32404337 -6.61894293 17.8140051 -6.625 13.25 C-6.64949219 12.28255859 -6.67398438 11.31511719 -6.69921875 10.31835938 C-6.70308594 9.38958984 -6.70695313 8.46082031 -6.7109375 7.50390625 C-6.71915527 6.65256104 -6.72737305 5.80121582 -6.73583984 4.92407227 C-6.25 2.6875 -6.25 2.6875 -4.36181641 0.86694336 C-2.25 -0.3125 -2.25 -0.3125 0 0 Z " fill="#BFB1C5" transform="translate(247.25,258.3125)"/>
<path d="M0 0 C1.32 0 2.64 0 4 0 C4 1.32 4 2.64 4 4 C3.01 4.495 3.01 4.495 2 5 C1.53348793 7.12576782 1.53348793 7.12576782 1.375 9.5625 C1.30023438 10.38878906 1.22546875 11.21507812 1.1484375 12.06640625 C1.09945313 12.70449219 1.05046875 13.34257812 1 14 C2.32 14 3.64 14 5 14 C5 14.99 5 15.98 5 17 C3.02 17 1.04 17 -1 17 C-1.02709444 14.91673869 -1.04643873 12.83337559 -1.0625 10.75 C-1.07410156 9.58984375 -1.08570313 8.4296875 -1.09765625 7.234375 C-1.01782092 4.59022872 -0.78643778 2.50173909 0 0 Z " fill="#ECE4ED" transform="translate(282,259)"/>
<path d="M0 0 C1.98 0 3.96 0 6 0 C6.36552803 1.41377782 6.71695495 2.83120576 7.0625 4.25 C7.25972656 5.03890625 7.45695312 5.8278125 7.66015625 6.640625 C8.01497267 9.10394822 7.76877544 10.65604132 7 13 C6.67 12.01 6.34 11.02 6 10 C5.67 11.65 5.34 13.3 5 15 C4.01 15 3.02 15 2 15 C2 12.03 2 9.06 2 6 C2.99 5.67 3.98 5.34 5 5 C5 3.68 5 2.36 5 1 C3.68 1 2.36 1 1 1 C0.67 2.32 0.34 3.64 0 5 C0 3.35 0 1.7 0 0 Z " fill="#A89AAE" transform="translate(281,258)"/>
<path d="M0 0 C4.875 0.875 4.875 0.875 6 2 C6.25 4.9375 6.25 4.9375 6 8 C3 10 3 10 0 10 C0 6.7 0 3.4 0 0 Z " fill="#A18BAB" transform="translate(106,312)"/>
<path d="M0 0 C2.31 0 4.62 0 7 0 C8.60725635 3.21451269 8.05748185 6.43612536 8 10 C7.34 10 6.68 10 6 10 C6 7.69 6 5.38 6 3 C4.35 3 2.7 3 1 3 C1 8.61 1 14.22 1 20 C0.67 20 0.34 20 0 20 C0 13.4 0 6.8 0 0 Z " fill="#F8F2F9" transform="translate(137,259)"/>
<path d="M0 0 C-0.94359375 0.31130859 -0.94359375 0.31130859 -1.90625 0.62890625 C-8.52352291 3.01072587 -15.69543124 6.39086248 -19 13 C-19.66 13 -20.32 13 -21 13 C-21.66 14.65 -22.32 16.3 -23 18 C-23.67578125 16.2421875 -23.67578125 16.2421875 -24 14 C-19.90146524 6.69069975 -8.68720126 -2.69602798 0 0 Z " fill="#725281" transform="translate(205,165)"/>
<path d="M0 0 C0.9075 0.2475 1.815 0.495 2.75 0.75 C-1.0831384 3.97828956 -5.04902157 6.57164716 -9.375 9.0625 C-9.99503906 9.43439453 -10.61507813 9.80628906 -11.25390625 10.18945312 C-12.87448915 11.12520906 -14.55993886 11.94649427 -16.25 12.75 C-17.24 12.42 -18.23 12.09 -19.25 11.75 C-18.610625 11.646875 -17.97125 11.54375 -17.3125 11.4375 C-16.2915625 11.0971875 -16.2915625 11.0971875 -15.25 10.75 C-14.92 9.76 -14.59 8.77 -14.25 7.75 C-12.93 7.75 -11.61 7.75 -10.25 7.75 C-10.25 7.09 -10.25 6.43 -10.25 5.75 C-9.26 5.75 -8.27 5.75 -7.25 5.75 C-7.25 5.09 -7.25 4.43 -7.25 3.75 C-4.86203872 0.53543674 -4.09697761 -0.31515212 0 0 Z " fill="#4F375F" transform="translate(373.25,382.25)"/>
<path d="M0 0 C5.875 3.625 5.875 3.625 7 7 C5.35 7.66 3.7 8.32 2 9 C2.33 9.99 2.66 10.98 3 12 C1.68 12.33 0.36 12.66 -1 13 C-1.33 12.34 -1.66 11.68 -2 11 C-1.01 11 -0.02 11 1 11 C1 10.34 1 9.68 1 9 C0.34 8.67 -0.32 8.34 -1 8 C-0.34 7.67 0.32 7.34 1 7 C0.01 6.34 -0.98 5.68 -2 5 C-1.67 4.01 -1.34 3.02 -1 2 C-0.67 2 -0.34 2 0 2 C0 1.34 0 0.68 0 0 Z " fill="#3F1E4E" transform="translate(230,170)"/>
<path d="M0 0 C1.5625 1.0625 1.5625 1.0625 3 3 C2.6875 6.6875 2.6875 6.6875 2 10 C0.37509046 10.02698189 -1.24994633 10.04638757 -2.875 10.0625 C-4.23238281 10.07990234 -4.23238281 10.07990234 -5.6171875 10.09765625 C-8 10 -8 10 -10 9 C-10.59355614 6.35139573 -10.74209269 3.70802678 -11 1 C-9.68 1 -8.36 1 -7 1 C-7 3.64 -7 6.28 -7 9 C-3.535 8.505 -3.535 8.505 0 8 C0 5.36 0 2.72 0 0 Z " fill="#594067" transform="translate(294,312)"/>
<path d="M0 0 C1.32 0 2.64 0 4 0 C4 0.66 4 1.32 4 2 C4.66 2 5.32 2 6 2 C6.125 4.875 6.125 4.875 6 8 C5.34 8.66 4.68 9.32 4 10 C2.68 10 1.36 10 0 10 C0 6.7 0 3.4 0 0 Z " fill="#432850" transform="translate(244,312)"/>
<path d="M0 0 C0.33 0 0.66 0 1 0 C1 7.92 1 15.84 1 24 C0.01 24 -0.98 24 -2 24 C-3.03997869 18.80010655 -2.70877565 15.936463 -1 11 C-0.53390122 7.34213782 -0.2487234 3.67848823 0 0 Z " fill="#3F254E" transform="translate(298,258)"/>
<path d="M0 0 C0.33 0 0.66 0 1 0 C1.48220263 1.87422152 1.96061833 3.74941754 2.4375 5.625 C2.70433594 6.66914063 2.97117188 7.71328125 3.24609375 8.7890625 C3.96452539 11.84891124 4.51976716 14.8948051 5 18 C3.68 18 2.36 18 1 18 C-0.83292414 11.59233959 -1.04559253 6.58723293 0 0 Z " fill="#DCD1E1" transform="translate(235,268)"/>
<path d="M0 0 C0.33 0 0.66 0 1 0 C1.19682269 3.43703301 1.38085152 6.87463427 1.5625 10.3125 C1.61857422 11.28896484 1.67464844 12.26542969 1.73242188 13.27148438 C1.78076172 14.20927734 1.82910156 15.14707031 1.87890625 16.11328125 C1.94960327 17.40939331 1.94960327 17.40939331 2.02172852 18.73168945 C2 21 2 21 1 24 C-0.98 24 -2.96 24 -5 24 C-4.67 22.68 -4.34 21.36 -4 20 C-4 20.99 -4 21.98 -4 23 C-2.68 23 -1.36 23 0 23 C-0.22816406 22.46890625 -0.45632812 21.9378125 -0.69140625 21.390625 C-1.12259766 20.33101563 -1.12259766 20.33101563 -1.5625 19.25 C-1.85253906 18.55390625 -2.14257812 17.8578125 -2.44140625 17.140625 C-3.07831803 14.69987216 -2.80248831 13.3596345 -2 11 C-1.67 11.33 -1.34 11.66 -1 12 C-0.67 8.04 -0.34 4.08 0 0 Z " fill="#573F63" transform="translate(240,263)"/>
<path d="M0 0 C3.06786501 1.33643047 4.81583908 2.68910571 6.875 5.3125 C9.63950341 8.68350161 12.57567344 11.3094577 16 14 C15.01 14.66 14.02 15.32 13 16 C8.38 11.38 3.76 6.76 -1 2 C-0.67 1.34 -0.34 0.68 0 0 Z " fill="#72577E" transform="translate(200,182)"/>
<path d="M0 0 C2.0625 0.4375 2.0625 0.4375 4 1 C3.979375 1.928125 3.95875 2.85625 3.9375 3.8125 C3.84230396 7.02286011 3.84230396 7.02286011 5 10 C3.02 10 1.04 10 -1 10 C-1.02689216 8.52093108 -1.04634621 7.04172517 -1.0625 5.5625 C-1.07410156 4.73878906 -1.08570313 3.91507812 -1.09765625 3.06640625 C-1 1 -1 1 0 0 Z " fill="#9A84A4" transform="translate(258,312)"/>
<path d="M0 0 C0.33 0 0.66 0 1 0 C1.33 1.98 1.66 3.96 2 6 C2.66 5.34 3.32 4.68 4 4 C3.71749338 6.58463502 3.4243774 9.16731135 3.125 11.75 C3.04636719 12.47960937 2.96773438 13.20921875 2.88671875 13.9609375 C2.42432884 17.87346748 1.79039542 20.41920916 0 24 C0 16.08 0 8.16 0 0 Z " fill="#634F6E" transform="translate(315,258)"/>
<path d="M0 0 C0.99 0.33 1.98 0.66 3 1 C0.03 3.97 -2.94 6.94 -6 10 C-5.01 10.99 -4.02 11.98 -3 13 C-3 13.66 -3 14.32 -3 15 C-3.99 15.33 -4.98 15.66 -6 16 C-6.33 15.34 -6.66 14.68 -7 14 C-7.99 13.34 -8.98 12.68 -10 12 C-7.11954533 7.34695784 -3.96084779 3.78080926 0 0 Z " fill="#A78DB2" transform="translate(202,201)"/>
<path d="M0 0 C4.39044607 4.39044607 4.125 10.05679858 4.125 15.9375 C4.09310129 17.95851112 4.05469084 19.9794772 4 22 C3.01 21.34 2.02 20.68 1 20 C0.5234375 17.13671875 0.5234375 17.13671875 0.375 13.6875 C0.15046276 8.91535428 0.15046276 8.91535428 -0.5859375 4.20703125 C-1 2 -1 2 0 0 Z " fill="#5A396A" transform="translate(243,182)"/>
<path d="M0 0 C0.66 0 1.32 0 2 0 C2.66 2.64 3.32 5.28 4 8 C2.35 8 0.7 8 -1 8 C-1.33 6.68 -1.66 5.36 -2 4 C-2.33 5.32 -2.66 6.64 -3 8 C-5.64 8 -8.28 8 -11 8 C-11 7.67 -11 7.34 -11 7 C-8.69 7 -6.38 7 -4 7 C-4 5.35 -4 3.7 -4 2 C-2.68 2 -1.36 2 0 2 C0 1.34 0 0.68 0 0 Z " fill="#B7A7BE" transform="translate(337,279)"/>
<path d="M0 0 C0.99 0 1.98 0 3 0 C3 4.95 3 9.9 3 15 C2.01 15 1.02 15 0 15 C0 10.05 0 5.1 0 0 Z " fill="#493255" transform="translate(139,262)"/>
<path d="M0 0 C0.99 0 1.98 0 3 0 C3 4.95 3 9.9 3 15 C2.01 15 1.02 15 0 15 C0 10.05 0 5.1 0 0 Z " fill="#493356" transform="translate(270,262)"/>
<path d="M0 0 C0.99 0 1.98 0 3 0 C3 4.95 3 9.9 3 15 C2.01 15 1.02 15 0 15 C0 10.05 0 5.1 0 0 Z " fill="#523F5F" transform="translate(334,262)"/>
<path d="M0 0 C2.64 0 5.28 0 8 0 C8 1.32 8 2.64 8 4 C6.35 4 4.7 4 3 4 C3 5.98 3 7.96 3 10 C2.34 10 1.68 10 1 10 C0.67 6.7 0.34 3.4 0 0 Z " fill="#E2D7E5" transform="translate(126,258)"/>
<path d="M0 0 C0.33 0 0.66 0 1 0 C1.89604368 6.04829486 2.11269443 11.8894576 2 18 C0.68 18 -0.64 18 -2 18 C-1.48758893 11.97099313 -0.930215 5.97995357 0 0 Z " fill="#D6CEDA" transform="translate(280,268)"/>
<path d="M0 0 C2.31 0.66 4.62 1.32 7 2 C7 6 7 6 6 9 C6.66 9 7.32 9 8 9 C8 9.66 8 10.32 8 11 C9.32 11.66 10.64 12.32 12 13 C12 13.99 12 14.98 12 16 C10.86800647 15.0919838 9.74467637 14.17316174 8.625 13.25 C7.99851563 12.73953125 7.37203125 12.2290625 6.7265625 11.703125 C4.91687682 9.91800519 3.99882545 8.32050356 3 6 C3.66 5.34 4.32 4.68 5 4 C2.525 3.01 2.525 3.01 0 2 C0 1.34 0 0.68 0 0 Z " fill="#7C628B" transform="translate(192,178)"/>
<path d="M0 0 C0.33 0 0.66 0 1 0 C1.2475 1.051875 1.495 2.10375 1.75 3.1875 C2.55202756 6.13613073 3.07822528 7.08474406 5.25 9.4375 C7 12 7 12 6.8125 14.0859375 C6.30747653 16.08498875 5.66193711 18.04728551 5 20 C4.67 20 4.34 20 4 20 C3.566875 18.39125 3.566875 18.39125 3.125 16.75 C2.26641633 13.88805444 1.3557137 11.61459071 0 9 C0 6 0 3 0 0 Z " fill="#D5CCDB" transform="translate(150,262)"/>
<path d="M0 0 C0.66 0 1.32 0 2 0 C1.88979143 3.08404808 1.75924186 6.16691192 1.625 9.25 C1.5940625 10.12269531 1.563125 10.99539063 1.53125 11.89453125 C1.49257812 12.73886719 1.45390625 13.58320313 1.4140625 14.453125 C1.3826416 15.22817383 1.3512207 16.00322266 1.31884766 16.80175781 C0.96973494 19.20865742 0.19448896 20.89602295 -1 23 C-1.02887512 19.35418313 -1.04675585 15.70839537 -1.0625 12.0625 C-1.07087891 11.02158203 -1.07925781 9.98066406 -1.08789062 8.90820312 C-1.09272461 7.42416992 -1.09272461 7.42416992 -1.09765625 5.91015625 C-1.10289307 4.99371338 -1.10812988 4.07727051 -1.11352539 3.13305664 C-1 1 -1 1 0 0 Z " fill="#EEEBF2" transform="translate(201,261)"/>
<path d="M0 0 C0.99 0 1.98 0 3 0 C3 1.98 3 3.96 3 6 C4.32 6 5.64 6 7 6 C7 8.31 7 10.62 7 13 C0 6 0 6 -0.125 2.875 C-0.08375 1.92625 -0.0425 0.9775 0 0 Z " fill="#351D41" transform="translate(151,262)"/>
<path d="M0 0 C0.33 0.99 0.66 1.98 1 3 C-2.63 6.63 -6.26 10.26 -10 14 C-11.65 13.01 -13.3 12.02 -15 11 C-14.01 10.01 -13.02 9.02 -12 8 C-12 8.99 -12 9.98 -12 11 C-11.01 11 -10.02 11 -9 11 C-9 10.34 -9 9.68 -9 9 C-7.5390625 7.59765625 -7.5390625 7.59765625 -5.625 6.0625 C-3.16098476 4.08013383 -1.79533563 2.69300345 0 0 Z " fill="#6E507B" transform="translate(210,201)"/>
<path d="M0 0 C0 0.66 0 1.32 0 2 C-1.65 2 -3.3 2 -5 2 C-5 2.66 -5 3.32 -5 4 C-6.99284138 5.3440093 -8.99419671 6.67541292 -11 8 C-11.86625 8.86625 -12.7325 9.7325 -13.625 10.625 C-15.78237042 12.78237042 -17.29328547 13.75513973 -20 15 C-7.75510204 0 -7.75510204 0 0 0 Z " fill="#997CA7" transform="translate(231,179)"/>
<path d="M0 0 C0.99 0.66 1.98 1.32 3 2 C1.41332422 5.90285767 -1.13350481 8.33520982 -4.125 11.25 C-5.03507813 12.14203125 -5.94515625 13.0340625 -6.8828125 13.953125 C-7.58148438 14.62859375 -8.28015625 15.3040625 -9 16 C-9.99 15.67 -10.98 15.34 -12 15 C-11.44570312 14.51789063 -10.89140625 14.03578125 -10.3203125 13.5390625 C-9.59585938 12.90742188 -8.87140625 12.27578125 -8.125 11.625 C-7.04605469 10.68527344 -7.04605469 10.68527344 -5.9453125 9.7265625 C-4.5923402 8.52573166 -3.2791655 7.2791655 -2 6 C-1.83312552 3.41645782 -1.83312552 3.41645782 -2 1 C-1.34 0.67 -0.68 0.34 0 0 Z " fill="#7B5F8A" transform="translate(226,182)"/>
<path d="M0 0 C2.475 0.495 2.475 0.495 5 1 C5 3.64 5 6.28 5 9 C3.35 9 1.7 9 0 9 C0 6.03 0 3.06 0 0 Z " fill="#A08BA8" transform="translate(315,312)"/>
<path d="M0 0 C1.32 0 2.64 0 4 0 C4 0.66 4 1.32 4 2 C3.01 2.33 2.02 2.66 1 3 C1 3.66 1 4.32 1 5 C1.99 5 2.98 5 4 5 C4 6.65 4 8.3 4 10 C-0.875 9.125 -0.875 9.125 -2 8 C-2.1875 5.0625 -2.1875 5.0625 -2 2 C-1.34 1.34 -0.68 0.68 0 0 Z " fill="#AF96B9" transform="translate(129,312)"/>
<path d="M0 0 C0.99 0.33 1.98 0.66 3 1 C3.66 0.67 4.32 0.34 5 0 C4.67 3.3 4.34 6.6 4 10 C3.34 10 2.68 10 2 10 C2 12.97 2 15.94 2 19 C1.67 19 1.34 19 1 19 C0.67 12.73 0.34 6.46 0 0 Z " fill="#9D92A6" transform="translate(144,259)"/>
<path d="M0 0 C1.32 0.33 2.64 0.66 4 1 C4 3.64 4 6.28 4 9 C2.68 9.33 1.36 9.66 0 10 C0 6.7 0 3.4 0 0 Z " fill="#B4A0BD" transform="translate(222,312)"/>
<path d="M0 0 C1.32 0.33 2.64 0.66 4 1 C4.97608217 3.92824652 5.08226668 5.95613276 5 9 C3.35 9 1.7 9 0 9 C0 6.03 0 3.06 0 0 Z " fill="#BBA9C0" transform="translate(307,312)"/>
<path d="M0 0 C0.33 0 0.66 0 1 0 C1.33 2.97 1.66 5.94 2 9 C2.33 6.03 2.66 3.06 3 0 C3.33 0 3.66 0 4 0 C4 5.61 4 11.22 4 17 C3.34 17 2.68 17 2 17 C-0.44064587 11.35600642 -0.19289099 6.02248522 0 0 Z " fill="#A597AC" transform="translate(100,258)"/>
<path d="M0 0 C1.65 0 3.3 0 5 0 C5 2.31 5 4.62 5 7 C4.67 6.34 4.34 5.68 4 5 C3.34 5 2.68 5 2 5 C2.33 5.99 2.66 6.98 3 8 C2.34 8 1.68 8 1 8 C1 8.66 1 9.32 1 10 C0.34 9.67 -0.32 9.34 -1 9 C-0.67 6.03 -0.34 3.06 0 0 Z " fill="#442751" transform="translate(282,277)"/>
<path d="M0 0 C2.97 0.495 2.97 0.495 6 1 C5.67 2.32 5.34 3.64 5 5 C4.67 4.67 4.34 4.34 4 4 C3.34 5.98 2.68 7.96 2 10 C0.35 10 -1.3 10 -3 10 C-3 7.69 -3 5.38 -3 3 C-2.67 3 -2.34 3 -2 3 C-2 4.98 -2 6.96 -2 9 C-1.01 9 -0.02 9 1 9 C0.67 6.03 0.34 3.06 0 0 Z " fill="#A08FA6" transform="translate(290,277)"/>
<path d="M0 0 C0.33 3.3 0.66 6.6 1 10 C-0.32 9.67 -1.64 9.34 -3 9 C-3 7.35 -3 5.7 -3 4 C-3.66 4 -4.32 4 -5 4 C-5 3.01 -5 2.02 -5 1 C-1.125 0 -1.125 0 0 0 Z " fill="#EAE0EB" transform="translate(275,276)"/>
<path d="M0 0 C0.33 3.3 0.66 6.6 1 10 C0.67 9.01 0.34 8.02 0 7 C-0.66 7 -1.32 7 -2 7 C-2 7.99 -2 8.98 -2 10 C-2.99 10 -3.98 10 -5 10 C-5.125 3.25 -5.125 3.25 -4 1 C-1 0 -1 0 0 0 Z " fill="#9C8F9F" transform="translate(326,263)"/>
<path d="M0 0 C5.22926405 1.47073052 9.41637993 5.00733149 13 9 C13 9.99 13 10.98 13 12 C12.21625 11.525625 11.4325 11.05125 10.625 10.5625 C9.11051322 9.66101977 7.5764103 8.78820515 6 8 C6 7.01 6 6.02 6 5 C5.195625 4.731875 4.39125 4.46375 3.5625 4.1875 C2.716875 3.795625 1.87125 3.40375 1 3 C0.67 2.01 0.34 1.02 0 0 Z " fill="#51395C" transform="translate(397,113)"/>
<path d="M0 0 C2.64 0 5.28 0 8 0 C7.67 1.32 7.34 2.64 7 4 C5.68 3.67 4.36 3.34 3 3 C3 2.34 3 1.68 3 1 C2.34 1 1.68 1 1 1 C1 6.61 1 12.22 1 18 C0.67 18 0.34 18 0 18 C0 12.06 0 6.12 0 0 Z " fill="#EBE4ED" transform="translate(267,259)"/>
<path d="M0 0 C1.98 0 3.96 0 6 0 C6 1.98 6 3.96 6 6 C4.02 6 2.04 6 0 6 C0 4.02 0 2.04 0 0 Z " fill="#3B2148" transform="translate(129,262)"/>
<path d="M0 0 C1.32 0.33 2.64 0.66 4 1 C4 3.64 4 6.28 4 9 C2.68 9 1.36 9 0 9 C0 6.03 0 3.06 0 0 Z " fill="#BEAEC7" transform="translate(80,312)"/>
<path d="M0 0 C0.33 0 0.66 0 1 0 C1 3.63 1 7.26 1 11 C3.31 11 5.62 11 8 11 C8 11.99 8 12.98 8 14 C5.36 14 2.72 14 0 14 C0 9.38 0 4.76 0 0 Z " fill="#F7EEF8" transform="translate(126,272)"/>
<path d="M0 0 C0.66 0 1.32 0 2 0 C1.67 4.29 1.34 8.58 1 13 C-0.65 13.33 -2.3 13.66 -4 14 C-4 13.34 -4 12.68 -4 12 C-3.34 12 -2.68 12 -2 12 C-1.34 8.04 -0.68 4.08 0 0 Z " fill="#EAE2EE" transform="translate(121,259)"/>
<path d="M0 0 C3.96 1.98 7.92 3.96 12 6 C11.01 6.66 10.02 7.32 9 8 C8.01 7.34 7.02 6.68 6 6 C5.01 6.66 4.02 7.32 3 8 C1.9375 6.125 1.9375 6.125 1 4 C1.33 3.34 1.66 2.68 2 2 C1.34 2 0.68 2 0 2 C0 1.34 0 0.68 0 0 Z " fill="#583F66" transform="translate(311,63)"/>
<path d="M0 0 C1.65 0 3.3 0 5 0 C4.67 3.3 4.34 6.6 4 10 C3.01 10 2.02 10 1 10 C0.67 6.7 0.34 3.4 0 0 Z " fill="#7A5E87" transform="translate(166,312)"/>
<path d="M0 0 C0.99 0 1.98 0 3 0 C3 2.64 3 5.28 3 8 C3.66 8 4.32 8 5 8 C5 8.66 5 9.32 5 10 C3.35 10 1.7 10 0 10 C0 6.7 0 3.4 0 0 Z " fill="#977CA1" transform="translate(99,312)"/>
<path d="M0 0 C2.35613927 2.18784361 4.13691793 4.21450476 5.875 6.9375 C8.2793134 10.4025399 10.68129687 12.43554758 14 15 C13.67 15.66 13.34 16.32 13 17 C2.97324173 8.55866932 2.97324173 8.55866932 0 3 C0 2.01 0 1.02 0 0 Z " fill="#81608F" transform="translate(180,210)"/>
<path d="M0 0 C-0.33 0.99 -0.66 1.98 -1 3 C-1.99 3.33 -2.98 3.66 -4 4 C-4.33 10.6 -4.66 17.2 -5 24 C-5.33 24 -5.66 24 -6 24 C-6.08703823 20.56265937 -6.14040272 17.12560163 -6.1875 13.6875 C-6.21263672 12.71103516 -6.23777344 11.73457031 -6.26367188 10.72851562 C-6.27333984 9.79072266 -6.28300781 8.85292969 -6.29296875 7.88671875 C-6.3086792 7.02264404 -6.32438965 6.15856934 -6.34057617 5.26831055 C-6 3 -6 3 -4.66918945 1.19458008 C-3 0 -3 0 0 0 Z " fill="#FAF1FC" transform="translate(249,259)"/>
<path d="M0 0 C2.31 0 4.62 0 7 0 C7 0.99 7 1.98 7 3 C5.68 3 4.36 3 3 3 C3 4.98 3 6.96 3 9 C2.34 9 1.68 9 1 9 C0.67 6.03 0.34 3.06 0 0 Z " fill="#E4DEE7" transform="translate(212,259)"/>
<path d="M0 0 C0.66 0.33 1.32 0.66 2 1 C2 2.32 2 3.64 2 5 C2.99 4.67 3.98 4.34 5 4 C5.33 4.99 5.66 5.98 6 7 C5.34 7 4.68 7 4 7 C3.67 7.99 3.34 8.98 3 10 C2.34 10 1.68 10 1 10 C-1.42857143 3.71428571 -1.42857143 3.71428571 0 0 Z " fill="#371847" transform="translate(262,313)"/>
<path d="M0 0 C0.33 0 0.66 0 1 0 C1 2.97 1 5.94 1 9 C2.98 8.67 4.96 8.34 7 8 C7 8.66 7 9.32 7 10 C-2.25 10 -2.25 10 -6 9 C-5.01 8.67 -4.02 8.34 -3 8 C-2.87625 7.05125 -2.7525 6.1025 -2.625 5.125 C-2 2 -2 2 0 0 Z " fill="#5F456C" transform="translate(306,312)"/>
<path d="M0 0 C0.33 0.66 0.66 1.32 1 2 C1.66 2 2.32 2 3 2 C3.33 1.34 3.66 0.68 4 0 C4 3.3 4 6.6 4 10 C3.34 10 2.68 10 2 10 C2 9.34 2 8.68 2 8 C1.34 8 0.68 8 0 8 C0 5.36 0 2.72 0 0 Z " fill="#371B47" transform="translate(102,312)"/>
<path d="M0 0 C0.33 0 0.66 0 1 0 C1 5.61 1 11.22 1 17 C0.34 17 -0.32 17 -1 17 C-1 17.66 -1 18.32 -1 19 C-1.99 18.67 -2.98 18.34 -4 18 C-4 17.34 -4 16.68 -4 16 C-4.66 15.67 -5.32 15.34 -6 15 C-4.02 15 -2.04 15 0 15 C0 10.05 0 5.1 0 0 Z " fill="#FAF1FD" transform="translate(338,262)"/>
<path d="M0 0 C1.17571451 3.67410785 1.07366746 7.16929183 1 11 C0.34 11 -0.32 11 -1 11 C-1 12.65 -1 14.3 -1 16 C-1.33 16 -1.66 16 -2 16 C-3.19937786 9.62740199 -3.06475363 5.76173683 0 0 Z " fill="#533861" transform="translate(238,258)"/>
<path d="M0 0 C0.66 0.33 1.32 0.66 2 1 C-2.25 5.25 -2.25 5.25 -6 6 C-6.0825 6.61875 -6.165 7.2375 -6.25 7.875 C-7 10 -7 10 -9.0625 11.25 C-9.701875 11.4975 -10.34125 11.745 -11 12 C-9.65422692 7.71866696 -7.97986553 5.81390203 -4.375 3.1875 C-3.55773437 2.58292969 -2.74046875 1.97835937 -1.8984375 1.35546875 C-0.95871094 0.68451172 -0.95871094 0.68451172 0 0 Z " fill="#6A5675" transform="translate(21,114)"/>
<path d="M0 0 C1.98 0 3.96 0 6 0 C5.34 2.97 4.68 5.94 4 9 C3.34 9 2.68 9 2 9 C1.34 6.03 0.68 3.06 0 0 Z " fill="#A68EB0" transform="translate(140,312)"/>
<path d="M0 0 C0.66 0 1.32 0 2 0 C2.33 1.98 2.66 3.96 3 6 C3.66 6 4.32 6 5 6 C5 6.99 5 7.98 5 9 C4.34 9 3.68 9 3 9 C2.67 10.65 2.34 12.3 2 14 C1.67 14 1.34 14 1 14 C0.67 9.38 0.34 4.76 0 0 Z " fill="#D7CBDA" transform="translate(99,269)"/>
<path d="M0 0 C0.66 0 1.32 0 2 0 C2 2.97 2 5.94 2 9 C1.34 9 0.68 9 0 9 C0 8.01 0 7.02 0 6 C-0.66 6 -1.32 6 -2 6 C-2.33 6.99 -2.66 7.98 -3 9 C-3 6.36 -3 3.72 -3 1 C-2.67 1.99 -2.34 2.98 -2 4 C-1.34 4 -0.68 4 0 4 C0 2.68 0 1.36 0 0 Z " fill="#BDA6C5" transform="translate(177,312)"/>
<path d="M0 0 C0.66 0 1.32 0 2 0 C2 2.31 2 4.62 2 7 C2.66 7 3.32 7 4 7 C4 5.02 4 3.04 4 1 C4.33 1 4.66 1 5 1 C5 3.64 5 6.28 5 9 C3.35 9 1.7 9 0 9 C0 6.03 0 3.06 0 0 Z " fill="#B49CBC" transform="translate(158,312)"/>
<path d="M0 0 C0.66 0 1.32 0 2 0 C2 2.31 2 4.62 2 7 C2.66 7 3.32 7 4 7 C4 5.02 4 3.04 4 1 C4.33 1 4.66 1 5 1 C5 3.64 5 6.28 5 9 C3.35 9 1.7 9 0 9 C0 6.03 0 3.06 0 0 Z " fill="#B59DBF" transform="translate(87,312)"/>
<path d="M0 0 C0.99 0 1.98 0 3 0 C3 3.3 3 6.6 3 10 C2.01 10 1.02 10 0 10 C0 6.7 0 3.4 0 0 Z " fill="#8F749C" transform="translate(114,312)"/>
<path d="M0 0 C0.66 0.33 1.32 0.66 2 1 C2.05383848 3.45862401 2.09359038 5.9160755 2.125 8.375 C2.14175781 9.07367188 2.15851563 9.77234375 2.17578125 10.4921875 C2.19344267 12.32897486 2.10303261 14.16601963 2 16 C1.34 16.66 0.68 17.32 0 18 C-2.18529142 13.70226021 -1.97797551 10.87886533 -1.125 6.1875 C-0.92132813 5.02605469 -0.71765625 3.86460937 -0.5078125 2.66796875 C-0.34023437 1.78753906 -0.17265625 0.90710938 0 0 Z " fill="#533C5E" transform="translate(146,269)"/>
<path d="M0 0 C1.32 0 2.64 0 4 0 C5.1577506 3.47325181 5.06866652 6.36067448 5 10 C4.67 10 4.34 10 4 10 C4 8.35 4 6.7 4 5 C3.34 5 2.68 5 2 5 C1.67 5.66 1.34 6.32 1 7 C0 6 0 6 -0.0625 2.9375 C-0.041875 1.968125 -0.02125 0.99875 0 0 Z " fill="#F1EAF2" transform="translate(320,259)"/>
<path d="M0 0 C2.4375 1.375 2.4375 1.375 3.25 4 C3.311875 4.78375 3.37375 5.5675 3.4375 6.375 C0.4655615 5.25048273 -1.89690687 4.15206209 -4.5625 2.375 C-4.5625 1.715 -4.5625 1.055 -4.5625 0.375 C-2.5625 -0.625 -2.5625 -0.625 0 0 Z " fill="#482D54" transform="translate(71.5625,393.625)"/>
<path d="M0 0 C0.391875 0.474375 0.78375 0.94875 1.1875 1.4375 C3.40808374 3.35179633 5.13375709 3.61266988 8 4 C7.67 4.99 7.34 5.98 7 7 C5.00045254 7.04254356 2.99958364 7.04080783 1 7 C0 6 0 6 -0.0625 2.9375 C-0.041875 1.968125 -0.02125 0.99875 0 0 Z " fill="#F1E5F5" transform="translate(293,279)"/>
<path d="M0 0 C1.65 0 3.3 0 5 0 C5.33 3.3 5.66 6.6 6 10 C5.34 10 4.68 10 4 10 C3.67 7.69 3.34 5.38 3 3 C2.34 3 1.68 3 1 3 C0.67 4.32 0.34 5.64 0 7 C0 4.69 0 2.38 0 0 Z " fill="#4B3256" transform="translate(320,277)"/>
<path d="M0 0 C0.99 0.33 1.98 0.66 3 1 C3 1.66 3 2.32 3 3 C2.34 3 1.68 3 1 3 C1 6.96 1 10.92 1 15 C-0.32 15 -1.64 15 -3 15 C-3 12.69 -3 10.38 -3 8 C-2.67 8 -2.34 8 -2 8 C-2 9.98 -2 11.96 -2 14 C-1.34 14 -0.68 14 0 14 C0 9.38 0 4.76 0 0 Z " fill="#A899AE" transform="translate(231,272)"/>
<path d="M0 0 C2.475 0.99 2.475 0.99 5 2 C5 3.65 5 5.3 5 7 C3.35 7 1.7 7 0 7 C0 4.69 0 2.38 0 0 Z " fill="#C5B3CB" transform="translate(119,314)"/>
<path d="M0 0 C0.66 0 1.32 0 2 0 C2.33 2.97 2.66 5.94 3 9 C1.35 9.33 -0.3 9.66 -2 10 C-2 9.34 -2 8.68 -2 8 C-1.01 8 -0.02 8 1 8 C0.34 7.01 -0.32 6.02 -1 5 C-0.625 2.3125 -0.625 2.3125 0 0 Z " fill="#AD91B8" transform="translate(183,312)"/>
<path d="M0 0 C1.2065625 0.0309375 1.2065625 0.0309375 2.4375 0.0625 C3.0975 1.3825 3.7575 2.7025 4.4375 4.0625 C3.4475 4.3925 2.4575 4.7225 1.4375 5.0625 C1.4375 4.4025 1.4375 3.7425 1.4375 3.0625 C-1.68035113 3.70894661 -1.68035113 3.70894661 -2.5625 6.0625 C-2.94468767 4.40635343 -3.27645102 2.73792976 -3.5625 1.0625 C-2.5625 0.0625 -2.5625 0.0625 0 0 Z " fill="#391C45" transform="translate(132.5625,313.9375)"/>
<path d="M0 0 C0.99 0 1.98 0 3 0 C3 0.99 3 1.98 3 3 C2.34 3 1.68 3 1 3 C1 3.99 1 4.98 1 6 C-3.62 6 -8.24 6 -13 6 C-13 5.67 -13 5.34 -13 5 C-10.03 5 -7.06 5 -4 5 C-3.67 4.01 -3.34 3.02 -3 2 C-3 2.99 -3 3.98 -3 5 C-2.01 5 -1.02 5 0 5 C0 3.35 0 1.7 0 0 Z " fill="#9C8CA4" transform="translate(138,281)"/>
<path d="M0 0 C0.99 0 1.98 0 3 0 C4.32229189 2.64458379 4.09677194 4.67761301 4.0625 7.625 C4.05347656 8.62789063 4.04445313 9.63078125 4.03515625 10.6640625 C4.02355469 11.43492187 4.01195312 12.20578125 4 13 C1.47519307 10.47519307 1.44261367 8.86176966 0.875 5.375 C0.70742188 4.37210937 0.53984375 3.36921875 0.3671875 2.3359375 C0.24601562 1.56507813 0.12484375 0.79421875 0 0 Z " fill="#310E3E" transform="translate(261,267)"/>
<path d="M0 0 C3.3 1.65 6.6 3.3 10 5 C10 5.33 10 5.66 10 6 C7.69 6.33 5.38 6.66 3 7 C2.67 6.01 2.34 5.02 2 4 C1.01 3.67 0.02 3.34 -1 3 C-0.67 2.01 -0.34 1.02 0 0 Z " fill="#5D4368" transform="translate(230,16)"/>
<path d="M0 0 C0.33 0 0.66 0 1 0 C1 3.3 1 6.6 1 10 C0.34 10 -0.32 10 -1 10 C-1 10.66 -1 11.32 -1 12 C-1.99 11.67 -2.98 11.34 -4 11 C-4 10.34 -4 9.68 -4 9 C-3.34 8.67 -2.68 8.34 -2 8 C-1.31527335 6.11235097 -1.31527335 6.11235097 -0.875 3.9375 C-0.70742187 3.20402344 -0.53984375 2.47054688 -0.3671875 1.71484375 C-0.24601562 1.14894531 -0.12484375 0.58304687 0 0 Z " fill="#3A1D47" transform="translate(113,312)"/>
<path d="M0 0 C1.32 0 2.64 0 4 0 C4 0.66 4 1.32 4 2 C3.34 2 2.68 2 2 2 C2 2.66 2 3.32 2 4 C2.66 4.33 3.32 4.66 4 5 C3.01 6.485 3.01 6.485 2 8 C2.66 8.33 3.32 8.66 4 9 C2.68 9 1.36 9 0 9 C0 6.03 0 3.06 0 0 Z " fill="#C2AACB" transform="translate(229,312)"/>
<path d="M0 0 C0.99 0.495 0.99 0.495 2 1 C2.31241371 3.54941373 2.51303421 6.00361513 2.625 8.5625 C2.66367188 9.27341797 2.70234375 9.98433594 2.7421875 10.71679688 C2.83671783 12.47742425 2.91945817 14.23867728 3 16 C2.67 15.01 2.34 14.02 2 13 C1.34 13 0.68 13 0 13 C0 8.71 0 4.42 0 0 Z " fill="#6D5774" transform="translate(112,258)"/>
<path d="M0 0 C1.2065625 0.0309375 1.2065625 0.0309375 2.4375 0.0625 C2.7675 1.7125 3.0975 3.3625 3.4375 5.0625 C1.0625 4.75 1.0625 4.75 -1.5625 4.0625 C-2.2225 3.0725 -2.8825 2.0825 -3.5625 1.0625 C-2.5625 0.0625 -2.5625 0.0625 0 0 Z " fill="#634670" transform="translate(192.5625,213.9375)"/>
<path d="M0 0 C4.30764815 1.56641751 8.06171464 3.68336156 12 6 C11.01 6.66 10.02 7.32 9 8 C9 7.34 9 6.68 9 6 C8.2575 5.9175 7.515 5.835 6.75 5.75 C3.47402617 4.85655259 2.16408188 3.56483779 0 1 C0 0.67 0 0.34 0 0 Z " fill="#6D5677" transform="translate(352,87)"/>
<path d="M0 0 C1.32 0 2.64 0 4 0 C4 0.66 4 1.32 4 2 C3.34 2 2.68 2 2 2 C2 2.66 2 3.32 2 4 C2.66 4.33 3.32 4.66 4 5 C3.34 5 2.68 5 2 5 C2 5.99 2 6.98 2 8 C2.66 8.33 3.32 8.66 4 9 C2.68 9 1.36 9 0 9 C0 6.03 0 3.06 0 0 Z " fill="#C4ABCA" transform="translate(251,312)"/>
<path d="M0 0 C1.65 0 3.3 0 5 0 C5 0.66 5 1.32 5 2 C4.34 2 3.68 2 3 2 C3 4.64 3 7.28 3 10 C2.34 10 1.68 10 1 10 C0.67 6.7 0.34 3.4 0 0 Z " fill="#A993B5" transform="translate(236,312)"/>
<path d="M0 0 C1.32 0 2.64 0 4 0 C3.25 4.75 3.25 4.75 1 7 C-1.125 6.625 -1.125 6.625 -3 6 C-3 5.34 -3 4.68 -3 4 C-2.34 4 -1.68 4 -1 4 C-0.67 2.68 -0.34 1.36 0 0 Z " fill="#D2C6D3" transform="translate(259,258)"/>
<path d="M0 0 C0.66 0.33 1.32 0.66 2 1 C-1.12621626 4.39417765 -3.56541027 6.6062718 -8 8 C-8.66 7.34 -9.32 6.68 -10 6 C-8.3811004 4.96951963 -6.75467511 3.95085322 -5.125 2.9375 C-4.22007813 2.36902344 -3.31515625 1.80054687 -2.3828125 1.21484375 C-1.20332031 0.61349609 -1.20332031 0.61349609 0 0 Z " fill="#6D5777" transform="translate(62,90)"/>
<path d="M0 0 C0 0.66 0 1.32 0 2 C-0.66 2 -1.32 2 -2 2 C-2 2.66 -2 3.32 -2 4 C-6.95 5.485 -6.95 5.485 -12 7 C-8.85595666 3.85595666 -4.70527539 0 0 0 Z " fill="#6A5475" transform="translate(139,47)"/>
<path d="M0 0 C1.65 0.33 3.3 0.66 5 1 C1.80009492 3.74277578 -1.00499382 5.6302836 -5 7 C-5 6.01 -5 5.02 -5 4 C-4.01 4 -3.02 4 -2 4 C-1.34 2.68 -0.68 1.36 0 0 Z " fill="#533B5E" transform="translate(281,434)"/>
<path d="M0 0 C0.33 0 0.66 0 1 0 C1 2.97 1 5.94 1 9 C-1.31 9.33 -3.62 9.66 -6 10 C-5.01 9.34 -4.02 8.68 -3 8 C-2.62633887 6.00714063 -2.29259485 4.00636471 -2 2 C-1.34 1.34 -0.68 0.68 0 0 Z " fill="#573F64" transform="translate(157,312)"/>
<path d="M0 0 C0.66 0 1.32 0 2 0 C2.66 2.64 3.32 5.28 4 8 C2.68 8 1.36 8 0 8 C-0.79953138 4.71303767 -1.09658936 3.28976808 0 0 Z " fill="#CEC3D2" transform="translate(142,279)"/>
<path d="M0 0 C0.66 0 1.32 0 2 0 C2 1.65 2 3.3 2 5 C2.99 5 3.98 5 5 5 C5.33 4.01 5.66 3.02 6 2 C5.67 3.65 5.34 5.3 5 7 C3.35 7.33 1.7 7.66 0 8 C0 5.36 0 2.72 0 0 Z " fill="#F5F1F8" transform="translate(254,259)"/>
<path d="M0 0 C1.32 0 2.64 0 4 0 C3.25 4.75 3.25 4.75 1 7 C-1.125 6.625 -1.125 6.625 -3 6 C-2.67 5.34 -2.34 4.68 -2 4 C-1.34 4.33 -0.68 4.66 0 5 C0 3.35 0 1.7 0 0 Z " fill="#DCCFE0" transform="translate(234,258)"/>
<path d="M0 0 C-1.01320312 0.38091797 -1.01320312 0.38091797 -2.046875 0.76953125 C-3.38492188 1.28580078 -3.38492188 1.28580078 -4.75 1.8125 C-5.63171875 2.14894531 -6.5134375 2.48539063 -7.421875 2.83203125 C-9.93039808 3.96846822 -11.87279005 5.26542927 -14 7 C-14.66 6.67 -15.32 6.34 -16 6 C-11.32764648 1.89399236 -6.34675212 -2.04151545 0 0 Z " fill="#9374A3" transform="translate(205,165)"/>
<path d="M0 0 C1.65 0.33 3.3 0.66 5 1 C2.63404067 3.61500768 0.13950774 5.38999603 -3 7 C-3.66 6.67 -4.32 6.34 -5 6 C-4.67 5.34 -4.34 4.68 -4 4 C-3.01 4 -2.02 4 -1 4 C-0.67 2.68 -0.34 1.36 0 0 Z " fill="#624A6F" transform="translate(234,461)"/>
<path d="M0 0 C0.99 0 1.98 0 3 0 C3 0.66 3 1.32 3 2 C1.56988027 2.86646667 0.13059381 3.71781829 -1.3125 4.5625 C-2.51326172 5.27599609 -2.51326172 5.27599609 -3.73828125 6.00390625 C-6 7 -6 7 -9 6 C-8.360625 5.896875 -7.72125 5.79375 -7.0625 5.6875 C-6.381875 5.460625 -5.70125 5.23375 -5 5 C-4.67 4.01 -4.34 3.02 -4 2 C-2.68 2 -1.36 2 0 2 C0 1.34 0 0.68 0 0 Z " fill="#5C4566" transform="translate(363,388)"/>
<path d="M0 0 C0.66 0 1.32 0 2 0 C4.21538462 5.41538462 4.21538462 5.41538462 3.125 8.375 C2.75375 8.91125 2.3825 9.4475 2 10 C1.34 9.67 0.68 9.34 0 9 C-1.28571429 2.57142857 -1.28571429 2.57142857 0 0 Z " fill="#42244C" transform="translate(185,312)"/>
<path d="M0 0 C0.66 1.32 1.32 2.64 2 4 C1.34 4 0.68 4 0 4 C0 8.95 0 13.9 0 19 C-0.33 19 -0.66 19 -1 19 C-1.02683987 16.02077407 -1.04676037 13.04178705 -1.0625 10.0625 C-1.07087891 9.21236328 -1.07925781 8.36222656 -1.08789062 7.48632812 C-1.09111328 6.67744141 -1.09433594 5.86855469 -1.09765625 5.03515625 C-1.10289307 4.2862915 -1.10812988 3.53742676 -1.11352539 2.76586914 C-1 1 -1 1 0 0 Z " fill="#E6E2E7" transform="translate(97,265)"/>
<path d="M0 0 C0 0.99 0 1.98 0 3 C-2.64 3 -5.28 3 -8 3 C-7.67 2.01 -7.34 1.02 -7 0 C-4.3333581 -1.33332095 -2.83319697 -0.67102033 0 0 Z " fill="#D9CCE0" transform="translate(208,259)"/>
<path d="M0 0 C0.66 0.33 1.32 0.66 2 1 C-2.18461538 5.92307692 -2.18461538 5.92307692 -6.3125 6.3125 C-7.199375 6.209375 -8.08625 6.10625 -9 6 C-3.30379747 1.25316456 -3.30379747 1.25316456 0 0 Z " fill="#6A5475" transform="translate(73,84)"/>
<path d="M0 0 C0.33 0 0.66 0 1 0 C1 1.65 1 3.3 1 5 C2.65 5 4.3 5 6 5 C6 5.99 6 6.98 6 8 C4.02 8 2.04 8 0 8 C0 5.36 0 2.72 0 0 Z " fill="#FAF3FB" transform="translate(281,268)"/>
<path d="M0 0 C0.99 0 1.98 0 3 0 C3 2.97 3 5.94 3 9 C2.34 9 1.68 9 1 9 C0.67 6.03 0.34 3.06 0 0 Z " fill="#DED3E2" transform="translate(113,259)"/>
<path d="M0 0 C1.485 0.99 1.485 0.99 3 2 C3.1875 5.125 3.1875 5.125 3 8 C1.68 8 0.36 8 -1 8 C-1.08226668 4.95613276 -0.97608217 2.92824652 0 0 Z " fill="#D5CBDB" transform="translate(155,259)"/>
<path d="M0 0 C0.33 0.99 0.66 1.98 1 3 C1.66 3.33 2.32 3.66 3 4 C1.35 5.32 -0.3 6.64 -2 8 C-2.99 7.01 -3.98 6.02 -5 5 C-4.360625 4.731875 -3.72125 4.46375 -3.0625 4.1875 C-0.66868314 3.11332248 -0.66868314 3.11332248 0 0 Z " fill="#351743" transform="translate(234,215)"/>
<path d="M0 0 C2 2 2 2 2.1953125 3.9453125 C2.13020833 5.96354167 2.06510417 7.98177083 2 10 C1.67 10 1.34 10 1 10 C0.67 8.35 0.34 6.7 0 5 C-0.99 5 -1.98 5 -3 5 C-3 4.01 -3 3.02 -3 2 C-2.34 2 -1.68 2 -1 2 C-0.67 1.34 -0.34 0.68 0 0 Z " fill="#432851" transform="translate(235,312)"/>
<path d="M0 0 C1.32 0 2.64 0 4 0 C3.67 2.97 3.34 5.94 3 9 C2.34 9 1.68 9 1 9 C0.67 6.03 0.34 3.06 0 0 Z " fill="#B49BBF" transform="translate(270,312)"/>
<path d="M0 0 C1.32 0 2.64 0 4 0 C3.67 2.97 3.34 5.94 3 9 C2.34 9 1.68 9 1 9 C0.67 6.03 0.34 3.06 0 0 Z " fill="#B197BB" transform="translate(244,312)"/>
<path d="M0 0 C2.39763185 2.39763185 2.34280586 3.33273498 2.625 6.625 C2.69976562 7.44226563 2.77453125 8.25953125 2.8515625 9.1015625 C2.90054688 9.72804688 2.94953125 10.35453125 3 11 C2.01 11 1.02 11 0 11 C0 7.37 0 3.74 0 0 Z " fill="#5A4465" transform="translate(98,276)"/>
<path d="M0 0 C3.3 1.65 6.6 3.3 10 5 C8.02 5.99 8.02 5.99 6 7 C5.34 5.68 4.68 4.36 4 3 C2.68 3.33 1.36 3.66 0 4 C0 2.68 0 1.36 0 0 Z " fill="#665071" transform="translate(325,71)"/>
<path d="M0 0 C0.66 0.33 1.32 0.66 2 1 C0.515 3.475 0.515 3.475 -1 6 C-2.65 5.67 -4.3 5.34 -6 5 C-4.06745228 2.9754262 -2.36841312 1.57894208 0 0 Z " fill="#634D6F" transform="translate(183,20)"/>
<path d="M0 0 C0.33 0.66 0.66 1.32 1 2 C1.66 2 2.32 2 3 2 C3.33 1.34 3.66 0.68 4 0 C4 1.65 4 3.3 4 5 C3.67 5 3.34 5 3 5 C2.67 6.98 2.34 8.96 2 11 C1.67 11 1.34 11 1 11 C0.67 7.37 0.34 3.74 0 0 Z " fill="#452953" transform="translate(325,258)"/>
<path d="M0 0 C0.99 0.33 1.98 0.66 3 1 C2.67 2.65 2.34 4.3 2 6 C1.01 5.67 0.02 5.34 -1 5 C-0.67 3.35 -0.34 1.7 0 0 Z " fill="#50365E" transform="translate(151,314)"/>
<path d="M0 0 C0.99 0.33 1.98 0.66 3 1 C2.67 2.65 2.34 4.3 2 6 C1.01 5.67 0.02 5.34 -1 5 C-0.67 3.35 -0.34 1.7 0 0 Z " fill="#50375C" transform="translate(300,314)"/>
<path d="M0 0 C0.66 0 1.32 0 2 0 C2.93423645 3.01031744 3.04449911 3.86650268 2 7 C0.02 7 -1.96 7 -4 7 C-3.67 5.68 -3.34 4.36 -3 3 C-3 3.99 -3 4.98 -3 6 C-1.68 6 -0.36 6 1 6 C0.67 4.02 0.34 2.04 0 0 Z " fill="#5E4766" transform="translate(239,280)"/>
<path d="M0 0 C2 2 2 2 2.1953125 3.9453125 C2.13020833 5.96354167 2.06510417 7.98177083 2 10 C1.34 10 0.68 10 0 10 C-0.19412181 8.52168779 -0.38012131 7.04230684 -0.5625 5.5625 C-0.66691406 4.73878906 -0.77132812 3.91507812 -0.87890625 3.06640625 C-0.91886719 2.38449219 -0.95882812 1.70257813 -1 1 C-0.67 0.67 -0.34 0.34 0 0 Z " fill="#F1EAF2" transform="translate(143,259)"/>
<path d="M0 0 C0.66 0 1.32 0 2 0 C1.40049704 3.68266103 0.75241109 7.34543185 0 11 C-0.33 11 -0.66 11 -1 11 C-1.02688151 9.35425434 -1.04634123 7.70838587 -1.0625 6.0625 C-1.07410156 5.14597656 -1.08570313 4.22945313 -1.09765625 3.28515625 C-1 1 -1 1 0 0 Z " fill="#33143D" transform="translate(317,258)"/>
<path d="M0 0 C2.31 0.66 4.62 1.32 7 2 C7 3.32 7 4.64 7 6 C5.68 6.33 4.36 6.66 3 7 C3.66 6.01 4.32 5.02 5 4 C2.525 3.01 2.525 3.01 0 2 C0 1.34 0 0.68 0 0 Z " fill="#9F84AB" transform="translate(192,178)"/>
<path d="M0 0 C3.45925163 1.2491742 6.14693203 2.67527795 9 5 C6.36 4.67 3.72 4.34 1 4 C0.67 2.68 0.34 1.36 0 0 Z " fill="#675073" transform="translate(269,39)"/>
<path d="M0 0 C1.9375 0.75 1.9375 0.75 4 2 C4.75 4.125 4.75 4.125 5 6 C2.97954558 5.39816251 0.97888961 4.72693904 -1 4 C-1.33 3.34 -1.66 2.68 -2 2 C-1.34 2 -0.68 2 0 2 C0 1.34 0 0.68 0 0 Z " fill="#53395F" transform="translate(171,452)"/>
<path d="M0 0 C0.33 0 0.66 0 1 0 C1.33 3.96 1.66 7.92 2 12 C0.68 11.34 -0.64 10.68 -2 10 C-2 9.34 -2 8.68 -2 8 C-1.34 8 -0.68 8 0 8 C0 5.36 0 2.72 0 0 Z " fill="#321141" transform="translate(170,314)"/>
<path d="M0 0 C1.32 0 2.64 0 4 0 C3.67 2.64 3.34 5.28 3 8 C2.34 8 1.68 8 1 8 C0.67 5.36 0.34 2.72 0 0 Z " fill="#442A50" transform="translate(283,313)"/>
<path d="M0 0 C1.32 0.33 2.64 0.66 4 1 C3.67 1.66 3.34 2.32 3 3 C2.34 2.67 1.68 2.34 1 2 C1 2.66 1 3.32 1 4 C1.66 4 2.32 4 3 4 C3 4.99 3 5.98 3 7 C2.01 7 1.02 7 0 7 C0 4.69 0 2.38 0 0 Z " fill="#C9B5CE" transform="translate(315,312)"/>
<path d="M0 0 C0.66 0 1.32 0 2 0 C2.33 1.98 2.66 3.96 3 6 C1.68 6.33 0.36 6.66 -1 7 C-0.67 4.69 -0.34 2.38 0 0 Z " fill="#4A3058" transform="translate(177,262)"/>
<path d="M0 0 C0.99 0 1.98 0 3 0 C3 1.98 3 3.96 3 6 C2.01 6 1.02 6 0 6 C0 4.02 0 2.04 0 0 Z " fill="#4E385C" transform="translate(151,262)"/>
<path d="M0 0 C0.66 0 1.32 0 2 0 C1.60196439 2.88575819 1.20990931 3.82189513 -1.0625 5.75 C-1.701875 6.1625 -2.34125 6.575 -3 7 C-3.33 6.01 -3.66 5.02 -4 4 C-3.34 4 -2.68 4 -2 4 C-1.34 2.68 -0.68 1.36 0 0 Z " fill="#311341" transform="translate(223,185)"/>
<path d="M0 0 C3.96 1.98 3.96 1.98 8 4 C7.01 4.66 6.02 5.32 5 6 C5 5.34 5 4.68 5 4 C3.02 4 1.04 4 -1 4 C-0.67 2.68 -0.34 1.36 0 0 Z " fill="#624B6D" transform="translate(382,104)"/>
<path d="M0 0 C0.66 0 1.32 0 2 0 C2 2.31 2 4.62 2 7 C0.68 7 -0.64 7 -2 7 C-2 6.34 -2 5.68 -2 5 C-1.34 5 -0.68 5 0 5 C0 3.35 0 1.7 0 0 Z " fill="#CDBDD3" transform="translate(292,312)"/>
<path d="M0 0 C0.66 0 1.32 0 2 0 C2 0.66 2 1.32 2 2 C2.66 2 3.32 2 4 2 C4 2.99 4 3.98 4 5 C2.68 5.33 1.36 5.66 0 6 C0 4.02 0 2.04 0 0 Z " fill="#B5A7BD" transform="translate(288,312)"/>
<path d="M0 0 C1.32 0.33 2.64 0.66 4 1 C4 2.32 4 3.64 4 5 C3.34 5 2.68 5 2 5 C2 5.66 2 6.32 2 7 C1.34 7 0.68 7 0 7 C0 6.01 0 5.02 0 4 C0.66 3.67 1.32 3.34 2 3 C1.34 2.67 0.68 2.34 0 2 C0 1.34 0 0.68 0 0 Z " fill="#CBB8D5" transform="translate(258,312)"/>
<path d="M0 0 C2.31 0 4.62 0 7 0 C6.67 1.32 6.34 2.64 6 4 C4.68 3.67 3.36 3.34 2 3 C2 2.34 2 1.68 2 1 C1.34 0.67 0.68 0.34 0 0 Z " fill="#F8ECF9" transform="translate(268,259)"/>
<path d="M0 0 C2.97 0.495 2.97 0.495 6 1 C4.68 2.32 3.36 3.64 2 5 C1.34 3.35 0.68 1.7 0 0 Z " fill="#5A4067" transform="translate(192,180)"/>
<path d="M0 0 C3.93673644 1.31224548 6.22719294 2.91910327 9 6 C2.35384615 4.52307692 2.35384615 4.52307692 0.5625 1.875 C0.376875 1.25625 0.19125 0.6375 0 0 Z " fill="#6C5674" transform="translate(397,113)"/>
<path d="M0 0 C-0.33 1.32 -0.66 2.64 -1 4 C-3.31 4.33 -5.62 4.66 -8 5 C-3.22727273 0 -3.22727273 0 0 0 Z " fill="#6D5476" transform="translate(154,38)"/>
<path d="M0 0 C0.99 0 1.98 0 3 0 C3 1.98 3 3.96 3 6 C2.01 5.67 1.02 5.34 0 5 C0 3.35 0 1.7 0 0 Z " fill="#462D51" transform="translate(279,314)"/>
<path d="M0 0 C0.99 0 1.98 0 3 0 C3 1.98 3 3.96 3 6 C2.01 5.67 1.02 5.34 0 5 C0 3.35 0 1.7 0 0 Z " fill="#482F53" transform="translate(202,314)"/>
<path d="M0 0 C1.65 0 3.3 0 5 0 C5 0.66 5 1.32 5 2 C4.34 2 3.68 2 3 2 C3 4.31 3 6.62 3 9 C2.67 9 2.34 9 2 9 C2 6.69 2 4.38 2 2 C1.34 2 0.68 2 0 2 C0 1.34 0 0.68 0 0 Z " fill="#BBA0C7" transform="translate(166,312)"/>
<path d="M0 0 C0.99 0 1.98 0 3 0 C3 1.65 3 3.3 3 5 C2.01 5.33 1.02 5.66 0 6 C0 4.02 0 2.04 0 0 Z " fill="#462F50" transform="translate(325,314)"/>
<path d="M0 0 C1.5 1.25 1.5 1.25 3 3 C3 4.32 3 5.64 3 7 C2.01 7 1.02 7 0 7 C0 4.69 0 2.38 0 0 Z " fill="#E9DCED" transform="translate(261,279)"/>
<path d="M0 0 C3.2542015 2.83430453 4.5206753 4.68607774 5 9 C1.7457985 6.16569547 0.4793247 4.31392226 0 0 Z " fill="#755384" transform="translate(180,210)"/>
</svg>
